<svg width="32" height="26" viewBox="0 0 32 26"  xmlns="http://www.w3.org/2000/svg">
<path d="M14.1143 0.219265C13.8857 0.402574 13.7143 2.87725 13.7143 5.71855V10.897L7.02857 11.0345L0.285715 11.172V12.776V14.3799L6.97143 14.5174L13.6571 14.6549L13.8286 20.0167L14 25.3785H16H18L18.1714 20.0167L18.3429 14.6549L25.0286 14.5174L31.7143 14.3799V12.776V11.172L25.0286 11.0345L18.3429 10.897L18.1714 5.53524L18 0.173438L16.2857 0.0359557C15.3143 -0.055699 14.3429 0.0359557 14.1143 0.219265ZM17.1429 6.36013V11.8594H24C30.4571 11.8594 30.8571 11.9052 30.8571 12.776C30.8571 13.6467 30.4571 13.6925 24 13.6925H17.1429V19.1918C17.1429 24.3703 17.0857 24.6911 16 24.6911C14.9143 24.6911 14.8571 24.3703 14.8571 19.1918V13.6925H8C1.54286 13.6925 1.14286 13.6467 1.14286 12.776C1.14286 11.9052 1.54286 11.8594 8 11.8594H14.8571V6.36013C14.8571 1.18164 14.9143 0.860848 16 0.860848C17.0857 0.860848 17.1429 1.18164 17.1429 6.36013Z" />
<path d="M0 9.10976C0 9.61386 0.285714 10.0263 0.571429 10.0263C0.914286 10.0263 1.14286 9.61386 1.14286 9.10976C1.14286 8.60566 0.914286 8.19321 0.571429 8.19321C0.285714 8.19321 0 8.60566 0 9.10976Z" />
<path d="M2.85714 9.10976C2.85714 9.61386 3.14286 10.0263 3.42857 10.0263C3.77143 10.0263 4 9.61386 4 9.10976C4 8.60566 3.77143 8.19321 3.42857 8.19321C3.14286 8.19321 2.85714 8.60566 2.85714 9.10976Z" />
<path d="M5.71428 9.10976C5.71428 9.61386 6 10.0263 6.28571 10.0263C6.62857 10.0263 6.85714 9.61386 6.85714 9.10976C6.85714 8.60566 6.62857 8.19321 6.28571 8.19321C6 8.19321 5.71428 8.60566 5.71428 9.10976Z" />
<path d="M8.57143 9.10976C8.57143 9.61386 8.85714 10.0263 9.14286 10.0263C9.48571 10.0263 9.71429 9.61386 9.71429 9.10976C9.71429 8.60566 9.48571 8.19321 9.14286 8.19321C8.85714 8.19321 8.57143 8.60566 8.57143 9.10976Z" />
<path d="M11.4286 9.10976C11.4286 9.61386 11.7143 10.0263 12 10.0263C12.3429 10.0263 12.5714 9.61386 12.5714 9.10976C12.5714 8.60566 12.3429 8.19321 12 8.19321C11.7143 8.19321 11.4286 8.60566 11.4286 9.10976Z" />
<path d="M19.4286 16.4422C19.4286 16.9463 19.7143 17.3587 20 17.3587C20.3429 17.3587 20.5714 16.9463 20.5714 16.4422C20.5714 15.9381 20.3429 15.5256 20 15.5256C19.7143 15.5256 19.4286 15.9381 19.4286 16.4422Z" />
<path d="M22.2857 16.4422C22.2857 16.9463 22.5714 17.3587 22.8571 17.3587C23.2 17.3587 23.4286 16.9463 23.4286 16.4422C23.4286 15.9381 23.2 15.5256 22.8571 15.5256C22.5714 15.5256 22.2857 15.9381 22.2857 16.4422Z" />
<path d="M25.1429 16.4422C25.1429 16.9463 25.4286 17.3587 25.7143 17.3587C26.0571 17.3587 26.2857 16.9463 26.2857 16.4422C26.2857 15.9381 26.0571 15.5256 25.7143 15.5256C25.4286 15.5256 25.1429 15.9381 25.1429 16.4422Z" />
<path d="M28 16.4422C28 16.9463 28.2857 17.3587 28.5714 17.3587C28.9143 17.3587 29.1429 16.9463 29.1429 16.4422C29.1429 15.9381 28.9143 15.5256 28.5714 15.5256C28.2857 15.5256 28 15.9381 28 16.4422Z" />
<path d="M30.8571 16.4422C30.8571 16.9463 31.1429 17.3587 31.4286 17.3587C31.7714 17.3587 32 16.9463 32 16.4422C32 15.9381 31.7714 15.5256 31.4286 15.5256C31.1429 15.5256 30.8571 15.9381 30.8571 16.4422Z" />
</svg>
