<svg width="46" height="49" viewBox="0 0 41 39" fill="none" xmlns="http://www.w3.org/2000/svg">
<path d="M12.0379 2.78373C4.63365 5.95042 0.226334 12.365 0.226334 19.9975C0.226334 23.2454 3.66404 31.0403 5.51511 32.0959C7.18989 33.0703 7.63062 31.7711 6.13214 30.2284C3.84033 27.8737 1.98926 23.083 1.98926 19.3479C2.07741 10.0915 10.7157 2.45894 21.2052 2.45894C22.7036 2.45894 24.0258 2.05295 24.0258 1.64697C24.0258 0.104219 16.5334 0.834994 12.0379 2.78373Z" fill="white"/>
<path d="M26.6702 2.45896C26.6702 3.43332 29.1383 4.48889 29.8435 3.83931C30.1079 3.59572 29.4909 3.02734 28.5213 2.45896C27.1991 1.89058 26.6702 1.89058 26.6702 2.45896Z" fill="white"/>
<path d="M31.959 5.38206C31.959 5.70685 33.1049 7.08721 34.5153 8.62995C39.9803 14.3138 40.2448 24.707 35.1323 29.9848C33.1931 32.0147 33.1931 33.8823 35.2204 32.4207C37.6885 30.472 40.7737 23.4078 40.7737 19.5104C40.7737 15.5317 38.2174 9.60432 35.3086 6.68122C33.4575 4.97608 31.959 4.3265 31.959 5.38206Z" fill="white"/>
<path d="M19.6185 14.6386V18.6984H15.2112C12.8313 18.6984 10.8039 19.0232 10.8039 19.5104C10.8039 19.9164 12.8313 20.3224 15.2112 20.3224H19.6185V24.3822C19.6185 26.5745 20.0593 28.4421 20.5 28.4421C21.0289 28.4421 21.3815 26.5745 21.3815 24.3822V20.3224H25.7888C28.2569 20.3224 30.1961 19.9164 30.1961 19.5104C30.1961 19.0232 28.2569 18.6984 25.7888 18.6984H21.3815V14.6386C21.3815 12.365 21.0289 10.5787 20.5 10.5787C20.0593 10.5787 19.6185 12.365 19.6185 14.6386Z" fill="white"/>
<path d="M10.892 33.6387C10.1869 34.3694 9.92243 35.1814 10.275 35.5062C11.0683 36.237 12.8313 34.4506 12.3905 33.3139C12.2142 32.6643 11.6854 32.7455 10.892 33.6387Z" fill="white"/>
<path d="M28.4332 33.4762C28.4332 34.9378 30.0198 36.237 30.9013 35.425C31.1657 35.1002 30.725 34.2882 29.9317 33.5574C28.5213 32.2583 28.4332 32.2583 28.4332 33.4762Z" fill="white"/>
<path d="M15.2112 36.237C15.2112 36.8865 15.6519 37.2113 16.0927 36.9677C16.6216 36.7241 16.9741 36.1558 16.9741 35.6686C16.9741 35.2626 16.6216 34.9378 16.0927 34.9378C15.6519 34.9378 15.2112 35.5062 15.2112 36.237Z" fill="white"/>
<path d="M19.6185 36.5618C19.6185 37.4549 20.0593 38.1857 20.5 38.1857C21.0289 38.1857 21.3815 37.4549 21.3815 36.5618C21.3815 35.6686 21.0289 34.9378 20.5 34.9378C20.0593 34.9378 19.6185 35.6686 19.6185 36.5618Z" fill="white"/>
<path d="M24.0258 35.6686C24.0258 36.1558 24.4666 36.7241 24.9073 36.9677C25.4362 37.2113 25.7888 36.8865 25.7888 36.237C25.7888 35.5062 25.4362 34.9378 24.9073 34.9378C24.4666 34.9378 24.0258 35.2626 24.0258 35.6686Z" fill="white"/>
</svg>
