<svg width="52" height="42" viewBox="0 0 62 52"  xmlns="http://www.w3.org/2000/svg">
<path d="M0.3375 1.16859C0.0375 1.86859 -0.0625 11.1686 0.0375 21.8686L0.3375 41.3686L18.6375 41.6686C33.0375 41.8686 36.8375 42.1686 36.8375 43.2686C36.8375 45.8686 40.9375 49.8686 44.9375 50.9686C52.5375 53.2686 59.9375 48.9686 61.4375 41.2686C62.2375 36.8686 61.4375 33.6686 58.3375 30.0686C56.0375 27.3686 55.8375 26.3686 55.6375 13.7686L55.3375 0.368591L28.0375 0.0685905C6.4375 -0.131409 0.6375 0.0685905 0.3375 1.16859ZM53.8375 14.3686V26.8686L51.1375 26.2686C49.5375 25.8686 47.4375 24.7686 46.2375 23.7686C43.2375 20.9686 41.9375 21.3686 36.8375 26.3686C32.2375 30.8686 32.2375 30.9686 30.3375 28.8686C27.6375 25.8686 25.7375 26.3686 20.8375 31.3686C18.1375 34.0686 15.5375 35.8686 14.1375 35.8686C12.8375 35.8686 11.8375 36.2686 11.8375 36.8686C11.8375 37.4686 16.5375 37.8686 23.8375 37.8686C31.1375 37.8686 35.8375 38.2686 35.8375 38.8686C35.8375 39.4686 29.5375 39.8686 18.8375 39.8686H1.8375V20.8686V1.86859H27.8375H53.8375V14.3686ZM44.5375 25.4686C44.6375 25.9686 43.4375 27.1686 41.7375 28.1686C40.0375 29.0686 38.1375 31.2686 37.5375 32.8686C36.6375 35.2686 35.8375 35.8686 33.4375 35.8686H30.4375L36.3375 29.8686C41.9375 24.1686 43.8375 23.1686 44.5375 25.4686ZM53.8375 29.3686C57.0375 31.0686 59.8375 35.4686 59.8375 38.8686C59.8375 42.2686 57.0375 46.6686 53.8375 48.3686C50.1375 50.2686 47.5375 50.2686 43.8375 48.3686C40.6375 46.6686 37.8375 42.2686 37.8375 38.8686C37.8375 35.5686 40.6375 31.0686 43.6375 29.4686C47.1375 27.4686 50.2375 27.4686 53.8375 29.3686ZM29.0375 30.5686C30.7375 32.0686 30.7375 32.2686 29.2375 34.0686C28.1375 35.2686 26.1375 35.8686 23.4375 35.8686H19.4375L22.8375 32.3686C26.7375 28.2686 26.6375 28.3686 29.0375 30.5686Z" />
<path d="M13.8375 5.86859C13.8375 6.96859 14.3375 7.86859 14.8375 7.86859C15.4375 7.86859 15.8375 6.96859 15.8375 5.86859C15.8375 4.76859 15.4375 3.86859 14.8375 3.86859C14.3375 3.86859 13.8375 4.76859 13.8375 5.86859Z" />
<path d="M9.4375 7.26859C9.7375 8.16859 10.5375 8.86859 11.0375 8.86859C12.3375 8.86859 11.5375 6.56859 10.0375 6.06859C9.3375 5.86859 9.0375 6.26859 9.4375 7.26859Z" />
<path d="M18.5375 6.56859C17.5375 7.46859 17.6375 8.86859 18.7375 8.86859C19.2375 8.86859 19.8375 8.16859 20.2375 7.36859C20.7375 5.86859 19.7375 5.36859 18.5375 6.56859Z" />
<path d="M6.0375 10.0686C6.5375 11.5686 8.8375 12.3686 8.8375 11.0686C8.8375 10.5686 8.1375 9.76859 7.2375 9.46859C6.2375 9.06859 5.8375 9.36859 6.0375 10.0686Z" />
<path d="M21.8375 9.86859C21.0375 10.3686 20.7375 11.0686 21.1375 11.4686C21.5375 11.8686 22.4375 11.6686 23.0375 11.0686C24.5375 9.56859 23.7375 8.66859 21.8375 9.86859Z" />
<path d="M11.5375 11.6686C9.3375 14.0686 9.4375 16.1686 11.6375 18.1686C13.9375 20.2686 16.2375 20.3686 18.2375 18.2686C21.2375 15.2686 19.1375 9.8686 14.9375 9.8686C13.9375 9.8686 12.4375 10.6686 11.5375 11.6686ZM17.6375 14.6686C18.0375 17.4686 15.2375 18.7686 13.2375 16.6686C11.2375 14.6686 12.5375 11.6686 15.2375 12.0686C16.5375 12.2686 17.4375 13.2686 17.6375 14.6686Z" />
<path d="M3.8375 14.8686C3.8375 15.3686 4.7375 15.8686 5.8375 15.8686C6.9375 15.8686 7.8375 15.3686 7.8375 14.8686C7.8375 14.2686 6.9375 13.8686 5.8375 13.8686C4.7375 13.8686 3.8375 14.2686 3.8375 14.8686Z" />
<path d="M21.8375 14.8686C21.8375 15.3686 22.7375 15.8686 23.8375 15.8686C24.9375 15.8686 25.8375 15.3686 25.8375 14.8686C25.8375 14.2686 24.9375 13.8686 23.8375 13.8686C22.7375 13.8686 21.8375 14.2686 21.8375 14.8686Z" />
<path d="M6.5375 18.5686C5.3375 19.7686 5.8375 20.7686 7.3375 20.2686C8.1375 19.8686 8.8375 19.2686 8.8375 18.7686C8.8375 17.6686 7.4375 17.5686 6.5375 18.5686Z" />
<path d="M20.8375 18.6686C20.8375 19.1686 21.5375 19.9686 22.4375 20.2686C23.4375 20.6686 23.8375 20.3686 23.6375 19.6686C23.1375 18.1686 20.8375 17.3686 20.8375 18.6686Z" />
<path d="M9.4375 22.4686C9.0375 23.4686 9.3375 23.8686 10.0375 23.6686C11.5375 23.1686 12.3375 20.8686 11.0375 20.8686C10.5375 20.8686 9.7375 21.5686 9.4375 22.4686Z" />
<path d="M18.0375 22.0686C18.2375 22.6686 19.0375 23.4686 19.6375 23.6686C20.3375 23.8686 20.6375 23.4686 20.2375 22.4686C19.5375 20.6686 17.4375 20.2686 18.0375 22.0686Z" />
<path d="M13.8375 23.8686C13.8375 24.9686 14.3375 25.8686 14.8375 25.8686C15.4375 25.8686 15.8375 24.9686 15.8375 23.8686C15.8375 22.7686 15.4375 21.8686 14.8375 21.8686C14.3375 21.8686 13.8375 22.7686 13.8375 23.8686Z" />
<path d="M3.8375 36.8686C3.8375 37.3686 5.2375 37.8686 6.8375 37.8686C8.5375 37.8686 9.8375 37.3686 9.8375 36.8686C9.8375 36.2686 8.5375 35.8686 6.8375 35.8686C5.2375 35.8686 3.8375 36.2686 3.8375 36.8686Z" />
<path d="M47.8375 34.8686C47.8375 37.5686 47.5375 37.8686 44.8375 37.8686C43.2375 37.8686 41.8375 38.2686 41.8375 38.8686C41.8375 39.3686 43.2375 39.8686 44.8375 39.8686C47.5375 39.8686 47.8375 40.1686 47.8375 42.8686C47.8375 44.4686 48.3375 45.8686 48.8375 45.8686C49.4375 45.8686 49.8375 44.4686 49.8375 42.8686C49.8375 40.1686 50.1375 39.8686 52.8375 39.8686C54.5375 39.8686 55.8375 39.3686 55.8375 38.8686C55.8375 38.2686 54.5375 37.8686 52.8375 37.8686C50.1375 37.8686 49.8375 37.5686 49.8375 34.8686C49.8375 33.1686 49.4375 31.8686 48.8375 31.8686C48.3375 31.8686 47.8375 33.1686 47.8375 34.8686Z" />
</svg>
