<svg width="30" height="20" viewBox="0 0 58 48"  xmlns="http://www.w3.org/2000/svg">
<path d="M53.1206 1.41912C52.3841 2.61856 45.8476 4.64838 28.8159 9.07706C9.11429 14.2439 5.33968 14.982 4.51111 13.8748C3.95873 13.1367 2.7619 12.7676 1.74921 12.9522C0.184127 13.229 0 14.1516 0 23.8394C0 33.5271 0.184127 34.4497 1.74921 34.7265C2.7619 34.9111 3.95873 34.542 4.51111 33.8039C5.24762 32.789 6.26032 32.6967 8.37778 33.2503C11.2317 33.9884 11.2317 34.0807 10.7714 38.1403C10.4032 42.1999 10.4032 42.2922 13.6254 43.6762C19.4254 46.075 24.2127 46.4441 26.2381 44.5988C27.2508 43.6762 28.0794 42.1999 28.0794 41.2773C28.0794 40.3547 28.4476 39.432 28.8159 39.1552C30.2889 38.2326 51.9238 44.5988 53.2127 46.3518C53.8571 47.2745 55.2381 47.9203 56.2508 47.6435C57.9079 47.3667 58 46.3518 58 23.8394C58 0.404217 58 0.311956 55.9746 0.035163C54.8698 -0.149366 53.673 0.404217 53.1206 1.41912ZM56.619 23.8394C56.619 37.9558 56.2508 45.9828 55.6984 45.9828C55.146 45.9828 54.7778 37.9558 54.7778 23.8394C54.7778 9.72291 55.146 1.69592 55.6984 1.69592C56.2508 1.69592 56.619 9.72291 56.619 23.8394ZM52.9365 24.0239C52.9365 39.2475 52.6603 43.3071 51.8317 42.4767C51.1873 41.8309 49.7143 41.3696 48.3333 41.2773C47.0444 41.2773 36.9175 38.8784 25.7778 35.926L5.52381 30.6669V23.8394V17.0118L10.127 15.8124C12.7048 15.1665 15.0063 14.6129 15.4667 14.6129C15.8349 14.6129 16.1111 16.6427 16.1111 19.2261C16.1111 21.7173 16.5714 23.8394 17.0317 23.8394C17.5841 23.8394 17.9524 21.5327 17.9524 18.7648V13.7825L21.4508 12.8599C23.2921 12.3986 29.8286 10.7378 35.8127 9.16933C41.7968 7.60083 47.6889 6.30913 48.8857 6.30913C49.9905 6.30913 51.2794 5.84781 51.5556 5.38649C51.8317 4.8329 52.2921 4.46385 52.5683 4.46385C52.7524 4.46385 52.9365 13.229 52.9365 24.0239ZM3.22222 23.8394C3.22222 29.3752 2.85397 33.0658 2.30159 33.0658C1.74921 33.0658 1.38095 29.3752 1.38095 23.8394C1.38095 18.3035 1.74921 14.6129 2.30159 14.6129C2.85397 14.6129 3.22222 18.3035 3.22222 23.8394ZM20.0698 36.3873C27.3429 38.2326 27.2508 38.1403 26.054 41.3696C25.0413 44.5066 23.4762 44.7833 17.0317 42.8458C12.8889 41.6464 11.5079 39.5243 12.7968 36.2028C13.4413 34.6343 13.2571 34.6343 20.0698 36.3873Z" />
<path d="M47.4127 9.99972C47.4127 10.461 48.2413 10.9224 49.254 10.9224C50.2667 10.9224 51.0952 10.461 51.0952 9.99972C51.0952 9.44613 50.2667 9.07708 49.254 9.07708C48.2413 9.07708 47.4127 9.44613 47.4127 9.99972Z" />
<path d="M47.4127 14.6129C47.4127 15.0743 48.2413 15.5356 49.254 15.5356C50.2667 15.5356 51.0952 15.0743 51.0952 14.6129C51.0952 14.0594 50.2667 13.6903 49.254 13.6903C48.2413 13.6903 47.4127 14.0594 47.4127 14.6129Z" />
<path d="M47.4127 19.2262C47.4127 19.6875 48.2413 20.1488 49.254 20.1488C50.2667 20.1488 51.0952 19.6875 51.0952 19.2262C51.0952 18.6726 50.2667 18.3035 49.254 18.3035C48.2413 18.3035 47.4127 18.6726 47.4127 19.2262Z" />
<path d="M47.4127 23.8394C47.4127 24.3007 48.2413 24.762 49.254 24.762C50.2667 24.762 51.0952 24.3007 51.0952 23.8394C51.0952 23.2858 50.2667 22.9167 49.254 22.9167C48.2413 22.9167 47.4127 23.2858 47.4127 23.8394Z" />
<path d="M16.1111 28.4526C16.1111 29.9288 16.5714 31.2205 17.0317 31.2205C17.5841 31.2205 17.9524 29.9288 17.9524 28.4526C17.9524 26.8841 17.5841 25.6847 17.0317 25.6847C16.5714 25.6847 16.1111 26.8841 16.1111 28.4526Z" />
<path d="M47.4127 28.4526C47.4127 28.9139 48.2413 29.3752 49.254 29.3752C50.2667 29.3752 51.0952 28.9139 51.0952 28.4526C51.0952 27.899 50.2667 27.53 49.254 27.53C48.2413 27.53 47.4127 27.899 47.4127 28.4526Z" />
<path d="M47.4127 33.0658C47.4127 33.5271 48.2413 33.9885 49.254 33.9885C50.2667 33.9885 51.0952 33.5271 51.0952 33.0658C51.0952 32.5122 50.2667 32.1432 49.254 32.1432C48.2413 32.1432 47.4127 32.5122 47.4127 33.0658Z" />
<path d="M47.4127 37.679C47.4127 38.1403 48.2413 38.6016 49.254 38.6016C50.2667 38.6016 51.0952 38.1403 51.0952 37.679C51.0952 37.1254 50.2667 36.7563 49.254 36.7563C48.2413 36.7563 47.4127 37.1254 47.4127 37.679Z" />
</svg>
