<svg width="33" height="24" viewBox="0 0 33 24" fill="none" xmlns="http://www.w3.org/2000/svg">
<path d="M9.10324 2.6589L9.10423 2.65749L9.10525 2.6561C9.41648 2.23071 9.67358 1.8868 9.9744 1.62305C10.2825 1.35294 10.6304 1.17121 11.119 1.04985C11.6011 0.930099 12.2224 0.868631 13.0787 0.836178C13.9367 0.803665 15.0432 0.799997 16.5 0.799997C17.9568 0.799997 19.0633 0.803665 19.9213 0.836178C20.7776 0.868631 21.3989 0.930099 21.8809 1.04985C22.3696 1.17121 22.7175 1.35294 23.0256 1.62305C23.3264 1.8868 23.5835 2.23071 23.8947 2.6561L23.8958 2.65749L23.8968 2.6589C24.3673 3.32598 24.7869 3.73946 25.2981 3.99206C25.8113 4.24565 26.4397 4.34838 27.35 4.34838C28.3855 4.34838 29.2225 4.41041 29.8868 4.64435C30.5642 4.88296 31.0568 5.29837 31.4033 5.98066C31.7439 6.65111 31.9402 7.57281 32.0539 8.82159C32.1678 10.0734 32.2 11.6744 32.2 13.7151C32.2 16.6404 32.145 18.5321 31.9674 19.7828C31.7903 21.0295 31.4855 21.6889 30.9424 22.093C30.8003 22.2095 30.5674 22.3004 30.29 22.3776C30.0009 22.4582 29.6333 22.5317 29.2015 22.5988C28.3372 22.7332 27.1987 22.8445 25.8803 22.9334C23.2427 23.1112 19.8704 23.2 16.5 23.2C13.1296 23.2 9.75732 23.1112 7.11966 22.9334C5.80132 22.8445 4.66285 22.7332 3.79855 22.5988C3.3667 22.5317 2.99913 22.4582 2.70999 22.3776C2.43264 22.3004 2.19973 22.2095 2.05756 22.093C1.51448 21.6889 1.20967 21.0295 1.03264 19.7828C0.855043 18.5321 0.8 16.6404 0.8 13.7151C0.8 11.6744 0.832218 10.0734 0.946136 8.82159C1.05978 7.57281 1.25615 6.65111 1.59668 5.98066C1.94324 5.29837 2.43576 4.88296 3.11325 4.64435C3.7775 4.41041 4.61447 4.34838 5.65 4.34838C6.56035 4.34838 7.18865 4.24565 7.70188 3.99206C8.21311 3.73946 8.63267 3.32598 9.10324 2.6589ZM22.6794 16.209C23.609 14.7179 23.7808 13.1549 23.3135 11.7913C22.8456 10.4261 21.729 9.2382 20.0393 8.51776C16.7451 7.15489 13.465 7.79825 11.4399 9.42086C10.4279 10.2318 9.73335 11.2832 9.49728 12.4482C9.26184 13.61 9.4787 14.9024 10.3198 16.2078C11.5625 18.0844 14.014 19.0446 16.5 19.0446C18.9855 19.0446 21.4365 18.0848 22.6794 16.209Z" fill="white" stroke="black" stroke-width="0.6"/>
<path d="M9.36648 19.0804C7.20334 17.3555 6.11667 15.2488 6.11667 13.1371C6.11667 11.0255 7.20323 8.9189 9.36615 7.194C11.3341 5.46839 14.0875 4.49839 16.5795 4.49839C21.1665 4.49839 24.6124 6.81573 26.0905 9.80019C27.5696 12.7866 27.0749 16.4352 23.7926 19.0803C19.596 22.6384 13.5631 22.6385 9.36648 19.0804Z" fill="white" stroke="black" stroke-width="0.2"/>
</svg>
