<svg width="34" height="33" viewBox="0 0 38 36"  xmlns="http://www.w3.org/2000/svg">
<mask id="path-1-inside-1" >
<path d="M29.6546 24.6706L33.584 20.4609L34.201 19.7999C38.2064 15.5089 38.2064 8.55176 34.201 4.26075C30.1957 -0.0302564 23.7018 -0.0302564 19.6965 4.26075L19.0795 4.92176L18.4625 4.26075C14.4572 -0.0302564 7.96328 -0.0302564 3.95797 4.26075C-0.0473495 8.55176 -0.0473495 15.5089 3.95797 19.7999L4.57497 20.4609L19.0795 36L25.3043 29.3312"/>
</mask>fill="white"
<path d="M29.6546 24.6706L33.584 20.4609L34.201 19.7999C38.2064 15.5089 38.2064 8.55176 34.201 4.26075C30.1957 -0.0302564 23.7018 -0.0302564 19.6965 4.26075L19.0795 4.92176L18.4625 4.26075C14.4572 -0.0302564 7.96328 -0.0302564 3.95797 4.26075C-0.0473495 8.55176 -0.0473495 15.5089 3.95797 19.7999L4.57497 20.4609L19.0795 36L25.3043 29.3312" />
<path d="M33.584 20.4609L34.3238 21.1514L33.584 20.4609ZM19.0795 4.92176L18.3397 5.61227L19.0795 6.4048L19.8193 5.61227L19.0795 4.92176ZM18.4625 4.26075L17.7227 4.95126L17.7227 4.95126L18.4625 4.26075ZM3.95797 19.7999L3.2182 20.4904H3.2182L3.95797 19.7999ZM4.57497 20.4609L5.31473 19.7704L4.57497 20.4609ZM19.0795 36L18.3397 36.6905L19.0795 37.483L19.8193 36.6905L19.0795 36ZM30.3944 25.3611L34.3238 21.1514L32.8443 19.7704L28.9148 23.9801L30.3944 25.3611ZM34.3238 21.1514L34.9408 20.4904L33.4613 19.1094L32.8443 19.7704L34.3238 21.1514ZM34.9408 20.4904C39.309 15.8106 39.309 8.25006 34.9408 3.57024L33.4613 4.95126C37.1037 8.85346 37.1037 15.2072 33.4613 19.1094L34.9408 20.4904ZM34.9408 3.57024C30.5354 -1.14936 23.3621 -1.14936 18.9567 3.57024L20.4363 4.95126C24.0415 1.08885 29.856 1.08885 33.4613 4.95126L34.9408 3.57024ZM18.9567 3.57024L18.3397 4.23125L19.8193 5.61227L20.4363 4.95126L18.9567 3.57024ZM19.8193 4.23125L19.2023 3.57024L17.7227 4.95126L18.3397 5.61227L19.8193 4.23125ZM19.2023 3.57024C14.7969 -1.14936 7.62358 -1.14936 3.2182 3.57024L4.69773 4.95126C8.30299 1.08885 14.1175 1.08885 17.7227 4.95126L19.2023 3.57024ZM3.2182 3.57024C-1.15003 8.25006 -1.15003 15.8106 3.2182 20.4904L4.69773 19.1094C1.05533 15.2072 1.05533 8.85346 4.69773 4.95126L3.2182 3.57024ZM3.2182 20.4904L3.8352 21.1514L5.31473 19.7704L4.69773 19.1094L3.2182 20.4904ZM3.8352 21.1514L18.3397 36.6905L19.8193 35.3095L5.31473 19.7704L3.8352 21.1514ZM19.8193 36.6905L26.044 30.0218L24.5645 28.6407L18.3397 35.3095L19.8193 36.6905Z" fill="black" mask="url(#path-1-inside-1)"/>
<path d="M7.05525 0.832275C4.29415 1.7252 0.762519 5.9838 0.248827 9.07471C-0.650135 14.1575 0.505673 16.0808 10.1374 26.3838L19.127 36L28.0524 26.3838C35.1799 18.7596 37.1062 16.2182 37.6841 14.0202C39.0968 8.31915 35.6294 2.20601 30.1072 0.626214C26.8966 -0.266718 23.9429 0.488839 21.0534 3.16763L19.127 4.8848L17.2007 3.09894C15.4027 1.51914 11.4216 -0.129343 9.81634 0.00803169C9.49529 0.0767176 8.21106 0.420153 7.05525 0.832275ZM14.568 2.2747C17.2649 3.78581 18.1638 5.22824 17.2007 6.46461C16.7512 7.08279 16.5586 7.70097 16.8154 7.97572C17.008 8.25047 18.4207 7.15148 19.9618 5.64036C23.365 2.13733 24.8418 1.31308 27.924 1.31308C32.8041 1.31308 37.1062 5.9838 37.1062 11.3414C37.1062 14.9818 35.501 17.3171 26.2545 27.0707L19.127 34.6263L10.33 25.2161L1.59727 15.8747L1.34042 12.1656C1.14779 9.34946 1.40463 8.04441 2.36781 6.25854C5.00048 1.79389 10.4585 0.00803169 14.568 2.2747Z" fill="black"/>
<path d="M13.9901 9.89895C13.5406 10.5171 13.348 11.1353 13.5406 11.4101C14.0543 11.8909 15.9165 10.3798 15.9165 9.48683C15.9165 8.52522 14.8891 8.73128 13.9901 9.89895Z" fill="black"/>
<path d="M31.4556 15.806C31.5841 16.2868 32.0978 16.8363 32.5472 16.9737C33.0609 17.1798 33.3178 16.905 33.1251 16.3555C32.9967 15.8747 32.483 15.3252 32.0335 15.1878C31.5198 14.9818 31.263 15.2565 31.4556 15.806Z" fill="black"/>
<path d="M28.7587 17.7293C28.7587 18.6222 30.4282 19.9273 30.8777 19.3778C31.3914 18.8969 30.1714 17.1111 29.3366 17.1111C29.0156 17.1111 28.7587 17.3858 28.7587 17.7293Z" fill="black"/>
<path d="M26.9608 20.6141C27.0893 21.0949 27.603 21.6444 28.0524 21.7818C28.5661 21.9878 28.823 21.7131 28.6303 21.1636C28.5019 20.6828 27.9882 20.1333 27.5387 19.9959C27.0251 19.7899 26.7682 20.0646 26.9608 20.6141Z" fill="black"/>
<path d="M24.6492 22.4687C24.4566 22.8808 24.7134 23.499 25.1629 23.9111C25.6766 24.3919 26.2545 24.4606 26.4471 24.1172C26.6398 23.705 26.3829 23.0869 25.9334 22.6747C25.4198 22.1939 24.8418 22.1252 24.6492 22.4687Z" fill="black"/>
<path d="M22.466 25.4222C22.5944 25.903 23.1081 26.4525 23.5576 26.5899C24.0713 26.7959 24.3282 26.5212 24.1355 25.9717C24.0071 25.4909 23.4934 24.9414 23.0439 24.804C22.5302 24.598 22.2734 24.8727 22.466 25.4222Z" fill="black"/>
<path d="M20.1544 27.2767C19.9618 27.6889 20.2186 28.307 20.6681 28.7192C21.1818 29.2 21.7597 29.2687 21.9523 28.9252C22.145 28.5131 21.8881 27.8949 21.4386 27.4828C20.9249 27.002 20.347 26.9333 20.1544 27.2767Z" fill="black"/>
<path d="M17.9712 30.2303C18.0996 30.7111 18.6133 31.2606 19.0628 31.398C19.5765 31.604 19.8333 31.3293 19.6407 30.7798C19.5123 30.299 18.9986 29.7495 18.5491 29.6121C18.0354 29.406 17.7786 29.6808 17.9712 30.2303Z" fill="black"/>
</svg>
