<svg width="30" height="26" viewBox="0 0 61 56"  xmlns="http://www.w3.org/2000/svg">
<path d="M0.3375 1.06969C0.0375 1.86969 -0.0625 14.2697 0.0375 28.8697L0.3375 55.3697H19.8375H39.3375L39.6375 43.5697L39.9375 31.8697H42.5375C44.7375 31.8697 44.9375 32.0697 43.8375 33.4697C42.7375 34.7697 42.9375 35.3697 45.1375 37.6697L47.8375 40.3697L54.0375 34.0697L60.3375 27.8697L54.0375 21.6697L47.8375 15.3697L45.1375 18.0697C42.9375 20.3697 42.7375 20.9697 43.8375 22.2697C44.9375 23.6697 44.7375 23.8697 42.5375 23.8697H39.9375L39.6375 12.0697L39.3375 0.369689L20.0375 0.0696891C5.0375 -0.130311 0.6375 0.0696891 0.3375 1.06969ZM37.8375 12.8697V23.8697H26.8375H15.8375V27.8697V31.8697H26.8375H37.8375V42.8697V53.8697H19.8375H1.8375V27.8697V1.86969H19.8375H37.8375V12.8697ZM52.8375 23.3697L57.2375 27.8697L52.5375 32.5697C48.9375 36.2697 47.6375 37.0697 46.6375 36.0697C45.7375 35.1697 45.8375 34.4697 47.1375 33.0697C48.0375 32.0697 48.8375 30.8697 48.8375 30.5697C48.8375 30.1697 41.8375 29.8697 33.3375 29.8697C18.5375 29.8697 17.8375 29.7697 17.8375 27.8697C17.8375 25.9697 18.5375 25.8697 33.3375 25.8697C41.8375 25.8697 48.8375 25.5697 48.8375 25.1697C48.8375 24.8697 48.1375 23.7697 47.2375 22.7697C45.7375 21.0697 46.0375 18.8697 47.7375 18.8697C48.1375 18.8697 50.4375 20.8697 52.8375 23.3697Z" />
<path d="M3.8375 49.8697C3.8375 50.9697 4.3375 51.8697 4.8375 51.8697C5.4375 51.8697 5.8375 50.9697 5.8375 49.8697C5.8375 48.7697 5.4375 47.8697 4.8375 47.8697C4.3375 47.8697 3.8375 48.7697 3.8375 49.8697Z" />
<path d="M8.8375 49.8697C8.8375 50.9697 9.3375 51.8697 9.8375 51.8697C10.4375 51.8697 10.8375 50.9697 10.8375 49.8697C10.8375 48.7697 10.4375 47.8697 9.8375 47.8697C9.3375 47.8697 8.8375 48.7697 8.8375 49.8697Z" />
<path d="M13.8375 49.8697C13.8375 50.9697 14.3375 51.8697 14.8375 51.8697C15.4375 51.8697 15.8375 50.9697 15.8375 49.8697C15.8375 48.7697 15.4375 47.8697 14.8375 47.8697C14.3375 47.8697 13.8375 48.7697 13.8375 49.8697Z" />
<path d="M18.8375 49.8697C18.8375 50.9697 19.3375 51.8697 19.8375 51.8697C20.4375 51.8697 20.8375 50.9697 20.8375 49.8697C20.8375 48.7697 20.4375 47.8697 19.8375 47.8697C19.3375 47.8697 18.8375 48.7697 18.8375 49.8697Z" />
<path d="M23.8375 49.8697C23.8375 50.9697 24.3375 51.8697 24.8375 51.8697C25.4375 51.8697 25.8375 50.9697 25.8375 49.8697C25.8375 48.7697 25.4375 47.8697 24.8375 47.8697C24.3375 47.8697 23.8375 48.7697 23.8375 49.8697Z" />
<path d="M28.8375 49.8697C28.8375 50.9697 29.3375 51.8697 29.8375 51.8697C30.4375 51.8697 30.8375 50.9697 30.8375 49.8697C30.8375 48.7697 30.4375 47.8697 29.8375 47.8697C29.3375 47.8697 28.8375 48.7697 28.8375 49.8697Z" />
<path d="M33.8375 49.8697C33.8375 50.9697 34.3375 51.8697 34.8375 51.8697C35.4375 51.8697 35.8375 50.9697 35.8375 49.8697C35.8375 48.7697 35.4375 47.8697 34.8375 47.8697C34.3375 47.8697 33.8375 48.7697 33.8375 49.8697Z" />
</svg>
