<svg width="38" height="38" viewBox="0 0 58 58" fill="none" xmlns="http://www.w3.org/2000/svg">
<circle cx="28.5" cy="28.5" r="28.5" fill="white"/>
<path d="M19.5292 1.55459C12.4292 3.75459 3.62917 12.7546 1.52917 19.9546C-1.87083 31.4546 0.329168 40.5546 8.82917 49.0546C17.3292 57.5546 26.4292 59.7546 37.9292 56.3546C45.4292 54.1546 54.1292 45.4546 56.3292 37.9546C59.7292 26.4546 57.5292 17.3546 49.0292 8.85459C40.5292 0.454589 31.0292 -1.94541 19.5292 1.55459ZM42.1292 5.65459C51.3292 10.7546 56.7292 21.1546 55.6292 31.7546C54.1292 46.2546 40.7292 57.1546 26.1292 55.6546C11.6292 54.1546 0.729168 40.7546 2.22917 26.1546C3.32917 15.9546 11.4292 6.05459 21.3292 2.95459C27.0292 1.25459 36.3292 2.45459 42.1292 5.65459Z" fill="black"/>
<path d="M19.4292 8.35458C16.7292 9.65458 13.4292 11.7546 12.2292 13.0546C8.82917 16.7546 5.92917 24.0546 5.92917 28.9546C5.92917 35.4546 11.5292 46.7546 13.6292 44.5546C14.0292 44.2546 13.4292 43.0546 12.5292 42.0546C10.2292 39.5546 8.02917 33.3546 7.92917 29.4546C7.82917 17.6546 17.6292 7.95458 29.7292 7.95458C31.4292 7.95458 32.9292 7.45458 32.9292 6.95458C32.9292 5.05458 24.4292 5.95458 19.4292 8.35458Z" fill="black"/>
<path d="M35.9292 7.9546C35.9292 9.1546 38.7292 10.4546 39.5292 9.6546C39.8292 9.3546 39.1292 8.6546 38.0292 7.9546C36.5292 7.2546 35.9292 7.2546 35.9292 7.9546Z" fill="black"/>
<path d="M41.9292 11.5546C41.9292 11.9546 43.2292 13.6546 44.8292 15.5546C51.1292 22.6546 51.3292 35.3546 45.3292 42.0546C44.4292 43.0546 43.8292 44.2546 44.2292 44.5546C46.3292 46.7546 51.9292 35.4546 51.9292 28.9546C51.9292 24.0546 49.0292 16.7546 45.7292 13.1546C43.6292 11.0546 41.9292 10.2546 41.9292 11.5546Z" fill="black"/>
<path d="M28.9292 19.6546C28.9292 20.0546 30.6292 22.0546 32.6292 24.1546L36.3292 27.9546H27.1292C21.6292 27.9546 17.9292 28.3546 17.9292 28.9546C17.9292 29.5546 21.6292 29.9546 27.1292 29.9546H36.3292L32.4292 33.9546C30.3292 36.1546 28.9292 38.2546 29.3292 38.6546C29.6292 39.0546 32.3292 37.0546 35.2292 34.1546L40.4292 28.9546L35.4292 23.9546C30.8292 19.2546 28.9292 18.0546 28.9292 19.6546Z" fill="black"/>
<path d="M18.0292 46.3546C17.2292 47.2546 16.9292 48.2546 17.3292 48.6546C18.2292 49.5546 20.2292 47.3546 19.7292 45.9546C19.5292 45.1546 18.9292 45.2546 18.0292 46.3546Z" fill="black"/>
<path d="M37.9292 46.1546C37.9292 47.9546 39.7292 49.5546 40.7292 48.5546C41.0292 48.1546 40.5292 47.1546 39.6292 46.2546C38.0292 44.6546 37.9292 44.6546 37.9292 46.1546Z" fill="black"/>
<path d="M22.9292 49.5546C22.9292 50.3546 23.4292 50.7546 23.9292 50.4546C24.5292 50.1546 24.9292 49.4546 24.9292 48.8546C24.9292 48.3546 24.5292 47.9546 23.9292 47.9546C23.4292 47.9546 22.9292 48.6546 22.9292 49.5546Z" fill="black"/>
<path d="M27.9292 49.9546C27.9292 51.0546 28.4292 51.9546 28.9292 51.9546C29.5292 51.9546 29.9292 51.0546 29.9292 49.9546C29.9292 48.8546 29.5292 47.9546 28.9292 47.9546C28.4292 47.9546 27.9292 48.8546 27.9292 49.9546Z" fill="black"/>
<path d="M32.9292 48.8546C32.9292 49.4546 33.4292 50.1546 33.9292 50.4546C34.5292 50.7546 34.9292 50.3546 34.9292 49.5546C34.9292 48.6546 34.5292 47.9546 33.9292 47.9546C33.4292 47.9546 32.9292 48.3546 32.9292 48.8546Z" fill="black"/>
</svg>
