<svg width="37" height="32" viewBox="0 0 39 34"  xmlns="http://www.w3.org/2000/svg">
<path d="M0 3.76875C0 5.90625 0.448438 9.3375 0.960938 11.4187C1.60156 14.0625 1.66563 15.6937 1.28125 16.65C-0.576563 20.925 1.85781 27.45 6.53438 30.375C8.07188 31.3875 10.3141 32.5687 11.5313 33.0187C14.6063 34.2562 23.8313 34.2562 26.9063 33.0187C35.4266 29.6437 39.2703 23.5125 37.0922 16.65C36.5797 15.075 36.5797 13.4437 37.0922 11.025C37.4766 9.1125 37.8609 5.9625 37.925 3.9375L38.1172 0.281246L34.9781 0.449996C31.775 0.562496 26.8422 2.19375 24.9203 3.7125C24.1516 4.275 22.4219 4.6125 19.4109 4.66875C15.6953 4.725 14.6063 4.44375 11.9797 3.15C8.7125 1.4625 3.90781 -3.55761e-06 1.47344 -3.55761e-06C0.0640625 -3.55761e-06 0 0.168746 0 3.76875ZM3.77969 2.53125C4.80469 2.98125 6.34219 4.10625 7.30313 5.0625L8.96875 6.8625L6.08594 9.39375C4.48438 10.7437 3.20313 12.2062 3.20313 12.5437C3.20313 12.9375 2.88281 12.7687 2.49844 12.2625C1.72969 11.0812 0.896875 1.6875 1.5375 1.6875C1.79375 1.6875 2.81875 2.08125 3.77969 2.53125ZM32.9281 2.475C31.1984 3.6 32.2875 4.275 34.0813 3.15C36.6438 1.575 36.9 1.96875 36.3875 6.58125C36.1953 9 35.9391 11.3625 35.9391 11.8125C35.875 12.2625 34.5938 11.475 32.8641 9.9C31.1344 8.38125 28.7 6.69375 27.3547 6.1875L24.8563 5.175L26.7141 4.10625C29.6609 2.25 35.7469 0.674996 32.9281 2.475ZM10.0578 3.43125C13.0047 4.66875 13.4531 5.2875 11.7875 5.85C10.1859 6.35625 10.0578 6.3 8.13594 4.21875C6.08594 1.9125 6.27813 1.85625 10.0578 3.43125ZM24.3438 6.46875C28.8922 7.875 29.3406 8.49375 26.65 9.675C23.3828 11.1375 21.0125 14.5687 20.6281 18.3375C20.3719 20.7562 20.1156 21.375 19.2188 21.375C18.3219 21.375 18.0656 20.7562 17.8094 18.3375C17.425 14.5687 15.0547 11.1375 11.7875 9.675C9.80156 8.775 9.60938 8.55 10.5063 7.93125C13.5172 5.7375 19.7953 5.0625 24.3438 6.46875ZM12.3641 11.3625C14.6703 12.825 16.5922 16.425 16.6563 19.2375C16.6563 20.9812 16.3359 21.4875 14.7984 22.2187C10.6984 24.0187 9.28906 27.3375 11.1469 30.4875L12.1078 32.0625L9.60938 30.9375C5.31719 29.025 1.92188 24.2437 1.92188 20.1937C1.92188 17.8875 3.075 14.9625 5.125 12.15C6.85469 9.73125 7.30313 9.50625 8.77656 9.84375C9.7375 10.0125 11.3391 10.7437 12.3641 11.3625ZM33.7609 12.8812C38.5016 19.8 36.5156 27.1125 28.9563 30.825L26.3297 32.0625L27.3547 29.925C28.1875 27.9562 28.1875 27.5625 27.2906 25.7062C26.7141 24.4687 25.4328 23.1187 24.0234 22.4437C22.1016 21.4312 21.7813 20.9812 21.7813 19.2375C21.8453 16.425 23.7672 12.7687 26.0094 11.4187C30.1094 8.8875 31.1984 9.1125 33.7609 12.8812ZM20.5 23.625L19.2188 24.75L17.9375 23.625L16.6563 22.5H19.2188H21.7813L20.5 23.625ZM17.8094 25.2562C18.1938 25.7062 18.5781 27.0562 18.5781 28.1812C18.5781 30.0937 18.3859 30.3187 16.2078 30.9937C14.0297 31.6125 13.7734 31.5562 12.6844 30.375C11.3391 28.9125 11.2109 27.45 12.3 25.7062C13.9016 22.95 15.5031 22.8375 17.8094 25.2562ZM26.5219 26.775C26.7781 27.5625 26.5219 28.8562 25.8813 29.8687C25.0484 31.3312 24.6641 31.5562 23.1906 31.2187C20.6281 30.6562 19.8594 29.8687 19.8594 27.7312C19.8594 26.3812 20.3719 25.425 21.5891 24.4125L23.2547 23.0625L24.7281 24.2437C25.4969 24.8625 26.3297 26.0437 26.5219 26.775ZM21.1406 31.7812L22.7422 32.5125L20.9484 32.9062C19.9875 33.1312 18.45 33.1312 17.4891 32.9062L15.6953 32.5125L17.2969 31.7812C19.2828 30.825 19.1547 30.825 21.1406 31.7812Z" />
<path d="M16.9125 7.36873C16.7203 7.70623 16.8484 8.26873 17.2328 8.60623C17.7453 9.05623 17.9375 8.88748 17.9375 7.98748C17.9375 6.63748 17.6172 6.41248 16.9125 7.36873Z" />
<path d="M20.5 7.875C20.5 8.94375 20.6922 9.05625 21.2688 8.55C21.8453 8.04375 21.8453 7.70625 21.2688 7.2C20.6922 6.69375 20.5 6.80625 20.5 7.875Z" />
<path d="M13.4531 8.71875C13.4531 9.16875 13.7734 9.5625 14.0938 9.5625C14.4781 9.5625 14.7344 9.16875 14.7344 8.71875C14.7344 8.26875 14.4781 7.875 14.0938 7.875C13.7734 7.875 13.4531 8.26875 13.4531 8.71875Z" />
<path d="M23.7031 8.71875C23.7031 9.16875 24.0234 9.5625 24.3438 9.5625C24.7281 9.5625 24.9844 9.16875 24.9844 8.71875C24.9844 8.26875 24.7281 7.875 24.3438 7.875C24.0234 7.875 23.7031 8.26875 23.7031 8.71875Z" />
<path d="M5.63749 15.2438C3.97186 16.0875 4.22811 17.8875 6.34217 19.7438C8.32811 21.4313 10.6344 21.825 12.8765 20.8125C14.6062 19.9688 14.414 18.1688 12.2359 16.2563C10.25 14.5688 7.68749 14.175 5.63749 15.2438ZM8.77655 18C8.84061 19.9688 8.71249 20.1938 7.87967 19.6313C5.57342 17.8875 5.38124 15.75 7.55936 15.75C8.39217 15.75 8.64842 16.3125 8.77655 18ZM12.6203 19.4063C12.4922 19.6875 11.7875 20.025 11.0187 20.1375C9.80155 20.3063 9.73749 20.1938 10.4422 18.5625C11.1469 16.9875 11.275 16.9313 11.9797 17.8313C12.4922 18.3375 12.7484 19.0688 12.6203 19.4063Z" />
<path d="M26.2016 16.2562C23.1266 19.0125 24.2156 21.375 28.5078 21.375C30.5578 21.375 33.9531 18.6187 33.9531 16.9312C33.9531 14.2875 28.9563 13.8375 26.2016 16.2562ZM32.4797 16.65C32.6078 17.0437 32.0313 18.0562 31.1344 18.9L29.5969 20.5312L29.6609 18.1125C29.7891 16.0875 29.9813 15.75 31.0063 15.8625C31.7109 15.975 32.3516 16.3125 32.4797 16.65ZM27.675 20.1375C26.1375 20.475 25.4328 19.4062 26.2656 17.9437L27.0984 16.7062L27.8672 18.3375C28.5078 19.6875 28.4438 20.025 27.675 20.1375Z" />
</svg>
