<svg width="51" height="49" viewBox="0 0 51 49" fill="none" xmlns="http://www.w3.org/2000/svg">
<path d="M50.5 24.5C50.5 37.7362 39.3262 48.5 25.5 48.5C11.6738 48.5 0.5 37.7362 0.5 24.5C0.5 11.2638 11.6738 0.5 25.5 0.5C39.3262 0.5 50.5 11.2638 50.5 24.5Z" fill="#F6F5F0" stroke="#565B56"/>
<path d="M19 14.4375C13.6188 19.125 13.0938 19.7812 13.0938 21.1406C13.0938 22.2656 13.2688 22.6406 13.8375 22.5937C14.5375 22.5 14.625 23.0156 14.625 27.375C14.625 31.9219 14.5813 32.25 13.75 32.25C13.2688 32.25 12.875 32.4375 12.875 32.7187C12.875 33 17.3813 33.1875 25.5625 33.1875C33.7438 33.1875 38.25 33 38.25 32.7187C38.25 32.4375 37.8563 32.25 37.375 32.25C36.5438 32.25 36.5 31.9219 36.5 27.375C36.5 23.0156 36.5875 22.5 37.2875 22.5937C37.8563 22.6406 38.0313 22.2656 38.0313 21.1406C38.0313 19.7812 37.4625 19.125 32.125 14.4375C28.8875 11.625 25.9563 9.28125 25.5625 9.28125C25.2125 9.28125 22.2375 11.625 19 14.4375ZM31.9063 15.4687C36.5438 19.5469 38.25 21.4687 37.1125 21.4687C36.9813 21.4687 34.4438 19.3125 31.425 16.6406C28.45 14.0156 25.825 11.8594 25.5625 11.8594C25.3438 11.8594 22.7188 14.0156 19.7 16.6406C16.6813 19.3125 14.1 21.4687 13.9688 21.4687C13.7938 21.4687 13.75 21.1406 13.8375 20.7656C14.0563 19.6875 25.1688 10.125 25.8688 10.4062C26.175 10.5469 28.9313 12.8437 31.9063 15.4687ZM30.7688 17.2969L35.625 21.5156V24.5625V27.5625H33C30.4625 27.5625 30.375 27.5156 30.375 26.3906C30.375 23.6719 27.9688 21 25.5625 21C23.1563 21 20.75 23.6719 20.75 26.3906C20.75 27.5156 20.6625 27.5625 18.125 27.5625H15.5V24.5625V21.5156L20.3563 17.2969C23.0688 14.9531 25.3875 13.0312 25.6063 13.0312C25.7813 13.0312 28.1 14.9531 30.7688 17.2969ZM28.2313 23.2969C29.4125 24.6094 29.5 24.8906 29.5 28.4531V32.25H25.5625H21.625V28.4531C21.625 24.8906 21.7125 24.6094 22.8938 23.2969C23.7688 22.3594 24.6 21.9375 25.5625 21.9375C26.525 21.9375 27.3563 22.3594 28.2313 23.2969ZM20.75 30.375V32.25H18.125H15.5V30.375V28.5H18.125H20.75V30.375ZM35.625 30.375V32.25H33H30.375V30.375V28.5H33H35.625V30.375Z" fill="#565B56"/>
<path d="M23.375 18.6562C23.375 18.8906 24.3813 19.125 25.5625 19.125C26.7875 19.125 27.75 18.8906 27.75 18.6562C27.75 18.375 26.7875 18.1875 25.5625 18.1875C24.3813 18.1875 23.375 18.375 23.375 18.6562Z" fill="#565B56"/>
<path d="M16.375 30.375C16.375 30.8906 16.5938 31.3125 16.8125 31.3125C17.075 31.3125 17.25 30.8906 17.25 30.375C17.25 29.8594 17.075 29.4375 16.8125 29.4375C16.5938 29.4375 16.375 29.8594 16.375 30.375Z" fill="#565B56"/>
<path d="M18.5625 30.375C18.5625 30.8906 18.7813 31.3125 19 31.3125C19.2625 31.3125 19.4375 30.8906 19.4375 30.375C19.4375 29.8594 19.2625 29.4375 19 29.4375C18.7813 29.4375 18.5625 29.8594 18.5625 30.375Z" fill="#565B56"/>
<path d="M31.6875 30.375C31.6875 30.8906 31.9063 31.3125 32.125 31.3125C32.3875 31.3125 32.5625 30.8906 32.5625 30.375C32.5625 29.8594 32.3875 29.4375 32.125 29.4375C31.9063 29.4375 31.6875 29.8594 31.6875 30.375Z" fill="#565B56"/>
<path d="M33.875 30.375C33.875 30.8906 34.0938 31.3125 34.3125 31.3125C34.575 31.3125 34.75 30.8906 34.75 30.375C34.75 29.8594 34.575 29.4375 34.3125 29.4375C34.0938 29.4375 33.875 29.8594 33.875 30.375Z" fill="#565B56"/>
</svg>
