<svg width="28" height="30" viewBox="0 0 28 30"  xmlns="http://www.w3.org/2000/svg">
<path d="M7 8.4375C1.61875 13.125 1.09375 13.7812 1.09375 15.1406C1.09375 16.2656 1.26875 16.6406 1.8375 16.5937C2.5375 16.5 2.625 17.0156 2.625 21.375C2.625 25.9219 2.58125 26.25 1.75 26.25C1.26875 26.25 0.875 26.4375 0.875 26.7187C0.875 27 5.38125 27.1875 13.5625 27.1875C21.7438 27.1875 26.25 27 26.25 26.7187C26.25 26.4375 25.8563 26.25 25.375 26.25C24.5438 26.25 24.5 25.9219 24.5 21.375C24.5 17.0156 24.5875 16.5 25.2875 16.5937C25.8563 16.6406 26.0313 16.2656 26.0313 15.1406C26.0313 13.7812 25.4625 13.125 20.125 8.4375C16.8875 5.625 13.9563 3.28125 13.5625 3.28125C13.2125 3.28125 10.2375 5.625 7 8.4375ZM19.9063 9.46875C24.5438 13.5469 26.25 15.4687 25.1125 15.4687C24.9813 15.4687 22.4438 13.3125 19.425 10.6406C16.45 8.01562 13.825 5.85937 13.5625 5.85937C13.3438 5.85937 10.7188 8.01562 7.7 10.6406C4.68125 13.3125 2.1 15.4687 1.96875 15.4687C1.79375 15.4687 1.75 15.1406 1.8375 14.7656C2.05625 13.6875 13.1688 4.125 13.8688 4.40625C14.175 4.54687 16.9313 6.84375 19.9063 9.46875ZM18.7688 11.2969L23.625 15.5156V18.5625V21.5625H21C18.4625 21.5625 18.375 21.5156 18.375 20.3906C18.375 17.6719 15.9688 15 13.5625 15C11.1563 15 8.75 17.6719 8.75 20.3906C8.75 21.5156 8.6625 21.5625 6.125 21.5625H3.5V18.5625V15.5156L8.35625 11.2969C11.0688 8.95312 13.3875 7.03125 13.6063 7.03125C13.7813 7.03125 16.1 8.95312 18.7688 11.2969ZM16.2313 17.2969C17.4125 18.6094 17.5 18.8906 17.5 22.4531V26.25H13.5625H9.625V22.4531C9.625 18.8906 9.7125 18.6094 10.8938 17.2969C11.7688 16.3594 12.6 15.9375 13.5625 15.9375C14.525 15.9375 15.3563 16.3594 16.2313 17.2969ZM8.75 24.375V26.25H6.125H3.5V24.375V22.5H6.125H8.75V24.375ZM23.625 24.375V26.25H21H18.375V24.375V22.5H21H23.625V24.375Z" />
<path d="M11.375 12.6562C11.375 12.8906 12.3813 13.125 13.5625 13.125C14.7875 13.125 15.75 12.8906 15.75 12.6562C15.75 12.375 14.7875 12.1875 13.5625 12.1875C12.3813 12.1875 11.375 12.375 11.375 12.6562Z" />
<path d="M4.375 24.375C4.375 24.8906 4.59375 25.3125 4.8125 25.3125C5.075 25.3125 5.25 24.8906 5.25 24.375C5.25 23.8594 5.075 23.4375 4.8125 23.4375C4.59375 23.4375 4.375 23.8594 4.375 24.375Z" />
<path d="M6.5625 24.375C6.5625 24.8906 6.78125 25.3125 7 25.3125C7.2625 25.3125 7.4375 24.8906 7.4375 24.375C7.4375 23.8594 7.2625 23.4375 7 23.4375C6.78125 23.4375 6.5625 23.8594 6.5625 24.375Z" />
<path d="M19.6875 24.375C19.6875 24.8906 19.9063 25.3125 20.125 25.3125C20.3875 25.3125 20.5625 24.8906 20.5625 24.375C20.5625 23.8594 20.3875 23.4375 20.125 23.4375C19.9063 23.4375 19.6875 23.8594 19.6875 24.375Z" />
<path d="M21.875 24.375C21.875 24.8906 22.0938 25.3125 22.3125 25.3125C22.575 25.3125 22.75 24.8906 22.75 24.375C22.75 23.8594 22.575 23.4375 22.3125 23.4375C22.0938 23.4375 21.875 23.8594 21.875 24.375Z" />
</svg>
