<svg width="22" height="20" viewBox="0 0 22 20"  xmlns="http://www.w3.org/2000/svg">
<path d="M0.125132 0.547133C0.0139035 0.874868 -0.0231725 5.22909 0.0139035 10.2388L0.125132 19.3686H11.0626H22V9.77058V0.172575L11.1367 0.0321164C2.53507 -0.0615222 0.23636 0.0321164 0.125132 0.547133ZM21.4439 2.84129V4.85453L16.2532 8.27236L11.0996 11.6434L5.909 8.27236L0.681272 4.85453V2.84129V0.874868H11.0626H21.4439V2.84129ZM6.02022 9.34921L11.0626 12.6734L16.1049 9.34921C18.8856 7.52325 21.2214 6.02502 21.2956 6.02502C21.3697 6.02502 21.4439 8.88101 21.4439 12.3457V18.6663H11.0626H0.681272V12.3457C0.681272 8.88101 0.755424 6.02502 0.829577 6.02502C0.903729 6.02502 3.23952 7.52325 6.02022 9.34921Z" />
<path d="M1.42279 16.7935C1.42279 17.3085 1.60817 17.7299 1.79355 17.7299C2.01601 17.7299 2.16431 17.3085 2.16431 16.7935C2.16431 16.2785 2.01601 15.8571 1.79355 15.8571C1.60817 15.8571 1.42279 16.2785 1.42279 16.7935Z" />
<path d="M3.2766 16.7935C3.2766 17.3085 3.46198 17.7299 3.64736 17.7299C3.86981 17.7299 4.01812 17.3085 4.01812 16.7935C4.01812 16.2785 3.86981 15.8571 3.64736 15.8571C3.46198 15.8571 3.2766 16.2785 3.2766 16.7935Z" />
<path d="M5.1304 16.7935C5.1304 17.3085 5.31578 17.7299 5.50116 17.7299C5.72362 17.7299 5.87192 17.3085 5.87192 16.7935C5.87192 16.2785 5.72362 15.8571 5.50116 15.8571C5.31578 15.8571 5.1304 16.2785 5.1304 16.7935Z" />
<path d="M6.98419 16.7935C6.98419 17.3085 7.16957 17.7299 7.35495 17.7299C7.57741 17.7299 7.72571 17.3085 7.72571 16.7935C7.72571 16.2785 7.57741 15.8571 7.35495 15.8571C7.16957 15.8571 6.98419 16.2785 6.98419 16.7935Z" />
<path d="M8.838 16.7935C8.838 17.3085 9.02338 17.7299 9.20876 17.7299C9.43121 17.7299 9.57952 17.3085 9.57952 16.7935C9.57952 16.2785 9.43121 15.8571 9.20876 15.8571C9.02338 15.8571 8.838 16.2785 8.838 16.7935Z" />
<path d="M10.6918 16.7935C10.6918 17.3085 10.8772 17.7299 11.0626 17.7299C11.285 17.7299 11.4333 17.3085 11.4333 16.7935C11.4333 16.2785 11.285 15.8571 11.0626 15.8571C10.8772 15.8571 10.6918 16.2785 10.6918 16.7935Z" />
<path d="M12.5456 16.7935C12.5456 17.3085 12.731 17.7299 12.9164 17.7299C13.1388 17.7299 13.2871 17.3085 13.2871 16.7935C13.2871 16.2785 13.1388 15.8571 12.9164 15.8571C12.731 15.8571 12.5456 16.2785 12.5456 16.7935Z" />
<path d="M14.3994 16.7935C14.3994 17.3085 14.5848 17.7299 14.7702 17.7299C14.9926 17.7299 15.1409 17.3085 15.1409 16.7935C15.1409 16.2785 14.9926 15.8571 14.7702 15.8571C14.5848 15.8571 14.3994 16.2785 14.3994 16.7935Z" />
<path d="M16.2532 16.7935C16.2532 17.3085 16.4386 17.7299 16.624 17.7299C16.8464 17.7299 16.9947 17.3085 16.9947 16.7935C16.9947 16.2785 16.8464 15.8571 16.624 15.8571C16.4386 15.8571 16.2532 16.2785 16.2532 16.7935Z" />
<path d="M18.107 16.7935C18.107 17.3085 18.2924 17.7299 18.4778 17.7299C18.7002 17.7299 18.8485 17.3085 18.8485 16.7935C18.8485 16.2785 18.7002 15.8571 18.4778 15.8571C18.2924 15.8571 18.107 16.2785 18.107 16.7935Z" />
<path d="M19.9608 16.7935C19.9608 17.3085 20.1462 17.7299 20.3316 17.7299C20.554 17.7299 20.7023 17.3085 20.7023 16.7935C20.7023 16.2785 20.554 15.8571 20.3316 15.8571C20.1462 15.8571 19.9608 16.2785 19.9608 16.7935Z" />
</svg>
