<svg width="23" height="23" viewBox="0 0 23 23" xmlns="http://www.w3.org/2000/svg">
<path d="M9.46081 1.02699C9.06114 1.60211 8.48383 2.05399 8.17297 2.05399C7.41803 2.05399 4.97557 3.94366 4.39827 4.97066C4.13182 5.38145 3.64332 7.80516 3.28806 10.311C2.75516 14.1314 2.39989 15.2406 1.24527 16.8838C-0.841917 19.9237 -0.575467 20.2934 4.13182 20.4577C7.86211 20.581 8.08416 20.6221 9.14996 21.7723C10.6154 23.3744 12.4362 23.4155 13.724 21.8545C14.6122 20.8275 14.9674 20.7453 18.7422 20.5399C23.5827 20.2934 23.8491 19.9237 21.7619 16.8838C20.6073 15.2406 20.252 14.1314 19.7191 10.311C19.3639 7.80516 18.8754 5.38145 18.6089 4.97066C18.0316 3.94366 15.5892 2.05399 14.8342 2.05399C14.5234 2.05399 13.9461 1.60211 13.5464 1.02699C13.0579 0.328637 12.3918 -3.42727e-07 11.5036 -3.42727e-07C10.6154 -3.42727e-07 9.94931 0.328637 9.46081 1.02699ZM12.8358 1.23239C12.8358 1.43779 12.2585 1.64319 11.5036 1.64319C10.7931 1.64319 10.1713 1.43779 10.1713 1.23239C10.1713 0.985914 10.7931 0.821595 11.5036 0.821595C12.2585 0.821595 12.8358 0.985914 12.8358 1.23239ZM16.3885 3.90258C17.9428 5.29929 18.3869 6.61385 19.053 11.7077C19.3195 13.7207 19.8524 15.8157 20.2076 16.3087C20.5629 16.8427 20.6517 17.2535 20.3853 17.2535C20.1632 17.2535 19.9412 17.6232 19.9412 18.0751C19.9412 19.1021 20.8293 19.1843 20.8293 18.1573C20.8738 17.5411 20.9182 17.5411 21.4955 18.2394C21.8507 18.6913 22.1616 19.1843 22.1616 19.3897C22.1616 19.554 17.3655 19.7183 11.5036 19.7183C5.6417 19.7183 0.845599 19.554 0.845599 19.3897C0.845599 19.1843 1.15646 18.6913 1.51172 18.2394C2.08903 17.5411 2.13344 17.5411 2.17785 18.1573C2.17785 19.1843 3.06602 19.1021 3.06602 18.0751C3.06602 17.6232 2.84397 17.2535 2.57752 17.2535C2.35548 17.2535 2.26667 17.0892 2.39989 16.8427C2.57752 16.5962 5.28643 16.4319 9.10555 16.4319C13.0579 16.4319 15.5003 16.2676 15.5003 16.0211C15.5003 15.7746 13.1911 15.6103 9.50522 15.6103C6.13019 15.6103 3.5101 15.446 3.5101 15.2406C3.5101 14.7476 4.30945 8.87324 4.66472 7.10681C4.88676 5.62793 6.7075 3.40962 8.12856 2.83451C8.66146 2.62911 10.3934 2.50587 12.0365 2.58803C14.6566 2.67019 15.1895 2.83451 16.3885 3.90258ZM13.0579 21.3615C12.6138 21.8134 11.9033 22.1831 11.5036 22.1831C11.1039 22.1831 10.3934 21.8134 9.94931 21.3615C9.14996 20.5399 9.19437 20.5399 11.5036 20.5399C13.8128 20.5399 13.8572 20.5399 13.0579 21.3615Z" />
<path d="M11.9477 4.10797C11.9477 4.31337 12.3029 4.51877 12.747 4.51877C13.1911 4.51877 13.7684 4.72417 14.0793 5.01173C14.3457 5.25821 14.7454 5.34037 14.923 5.17605C15.3671 4.76525 13.8128 3.69717 12.747 3.69717C12.3029 3.69717 11.9477 3.86149 11.9477 4.10797Z" />
<path d="M15.5003 6.16194C15.5003 7.02462 16.2109 7.96945 16.5217 7.51758C16.6994 7.2711 16.5217 6.73706 16.1665 6.32626C15.678 5.71007 15.5448 5.66899 15.5003 6.16194Z" />
<path d="M16.3885 16.0211C16.3885 16.2265 17.0102 16.4319 17.7208 16.4319C18.4757 16.4319 19.053 16.2265 19.053 16.0211C19.053 15.7746 18.4757 15.6103 17.7208 15.6103C17.0102 15.6103 16.3885 15.7746 16.3885 16.0211Z" />
<path d="M4.39827 18.0751C4.39827 18.527 4.62031 18.8967 4.84235 18.8967C5.1088 18.8967 5.28643 18.527 5.28643 18.0751C5.28643 17.6233 5.1088 17.2535 4.84235 17.2535C4.62031 17.2535 4.39827 17.6233 4.39827 18.0751Z" />
<path d="M6.61868 18.0751C6.61868 18.527 6.84072 18.8967 7.06276 18.8967C7.32921 18.8967 7.50685 18.527 7.50685 18.0751C7.50685 17.6233 7.32921 17.2535 7.06276 17.2535C6.84072 17.2535 6.61868 17.6233 6.61868 18.0751Z" />
<path d="M8.8391 18.0751C8.8391 18.527 9.06114 18.8967 9.28318 18.8967C9.54963 18.8967 9.72726 18.527 9.72726 18.0751C9.72726 17.6233 9.54963 17.2535 9.28318 17.2535C9.06114 17.2535 8.8391 17.6233 8.8391 18.0751Z" />
<path d="M11.0595 18.0751C11.0595 18.527 11.2816 18.8967 11.5036 18.8967C11.77 18.8967 11.9477 18.527 11.9477 18.0751C11.9477 17.6233 11.77 17.2535 11.5036 17.2535C11.2816 17.2535 11.0595 17.6233 11.0595 18.0751Z" />
<path d="M13.2799 18.0751C13.2799 18.527 13.502 18.8967 13.724 18.8967C13.9905 18.8967 14.1681 18.527 14.1681 18.0751C14.1681 17.6233 13.9905 17.2535 13.724 17.2535C13.502 17.2535 13.2799 17.6233 13.2799 18.0751Z" />
<path d="M15.5003 18.0751C15.5003 18.527 15.7224 18.8967 15.9444 18.8967C16.2109 18.8967 16.3885 18.527 16.3885 18.0751C16.3885 17.6233 16.2109 17.2535 15.9444 17.2535C15.7224 17.2535 15.5003 17.6233 15.5003 18.0751Z" />
<path d="M17.7208 18.0751C17.7208 18.527 17.9428 18.8967 18.1648 18.8967C18.4313 18.8967 18.6089 18.527 18.6089 18.0751C18.6089 17.6233 18.4313 17.2535 18.1648 17.2535C17.9428 17.2535 17.7208 17.6233 17.7208 18.0751Z" />
</svg>
