<svg width="113" height="87" viewBox="0 0 113 87" fill="none" xmlns="http://www.w3.org/2000/svg">
<mask id="path-1-inside-1" fill="white">
<path d="M36.8162 45.557L28.9914 52.4813L27.7628 53.5686C19.7869 60.6265 19.7869 72.0697 27.7628 79.1277C35.7386 86.1856 48.6701 86.1856 56.6459 79.1277L57.8746 78.0404L59.1032 79.1277C67.0791 86.1856 80.0105 86.1856 87.9864 79.1277C95.9622 72.0697 95.9622 60.6265 87.9864 53.5686L86.7577 52.4813L57.8746 26.9222L45.4791 37.8911"/>
</mask>
<path d="M36.8162 45.557L28.9914 52.4813L27.7628 53.5686C19.7869 60.6265 19.7869 72.0697 27.7628 79.1277C35.7386 86.1856 48.6701 86.1856 56.6459 79.1277L57.8746 78.0404L59.1032 79.1277C67.0791 86.1856 80.0105 86.1856 87.9864 79.1277C95.9622 72.0697 95.9622 60.6265 87.9864 53.5686L86.7577 52.4813L57.8746 26.9222L45.4791 37.8911" fill="#FF3E00"/>
<path d="M28.9914 52.4813L28.3208 51.7235L28.3208 51.7235L28.9914 52.4813ZM57.8746 78.0404L58.5452 77.2826L57.8746 76.6892L57.204 77.2826L57.8746 78.0404ZM59.1032 79.1277L59.7738 78.3698L59.7738 78.3698L59.1032 79.1277ZM87.9864 53.5686L88.657 52.8107L88.657 52.8107L87.9864 53.5686ZM86.7577 52.4813L86.0871 53.2391L86.0871 53.2391L86.7577 52.4813ZM57.8746 26.9222L58.5452 26.1643L57.8746 25.5709L57.204 26.1643L57.8746 26.9222ZM36.1456 44.7992L28.3208 51.7235L29.662 53.2391L37.4868 46.3149L36.1456 44.7992ZM28.3208 51.7235L27.0922 52.8107L28.4334 54.3264L29.662 53.2391L28.3208 51.7235ZM27.0922 52.8107C18.6612 60.2714 18.6612 72.4248 27.0922 79.8855L28.4334 78.3698C20.9126 71.7146 20.9126 60.9816 28.4334 54.3264L27.0922 52.8107ZM27.0922 79.8855C35.4509 87.2823 48.9578 87.2823 57.3166 79.8855L55.9753 78.3698C48.3823 85.089 36.0264 85.089 28.4334 78.3698L27.0922 79.8855ZM57.3166 79.8855L58.5452 78.7983L57.204 77.2826L55.9753 78.3698L57.3166 79.8855ZM57.204 78.7983L58.4326 79.8855L59.7738 78.3698L58.5452 77.2826L57.204 78.7983ZM58.4326 79.8855C66.7913 87.2823 80.2982 87.2823 88.657 79.8855L87.3158 78.3698C79.7228 85.089 67.3668 85.089 59.7738 78.3698L58.4326 79.8855ZM88.657 79.8855C97.088 72.4248 97.088 60.2714 88.657 52.8107L87.3158 54.3264C94.8365 60.9816 94.8365 71.7146 87.3158 78.3698L88.657 79.8855ZM88.657 52.8107L87.4284 51.7235L86.0871 53.2391L87.3158 54.3264L88.657 52.8107ZM87.4284 51.7235L58.5452 26.1643L57.204 27.68L86.0871 53.2391L87.4284 51.7235ZM57.204 26.1643L44.8085 37.1333L46.1497 38.649L58.5452 27.68L57.204 26.1643Z" fill="black" mask="url(#path-1-inside-1)"/>
<path d="M81.8187 84.7669C87.3169 83.2982 94.3495 76.2936 95.3725 71.2096C97.1626 62.8492 94.861 59.6858 75.6812 42.7391L57.78 26.9222L40.0066 42.7391C25.8136 55.2797 21.9776 59.4598 20.8268 63.0751C18.0138 72.4523 24.9185 82.5074 35.9149 85.1058C42.3082 86.5746 48.19 85.3318 53.944 80.9257L57.78 78.1012L61.6159 81.0386C65.1962 83.6371 73.1238 86.3486 76.3205 86.1226C76.9598 86.0097 79.5171 85.4448 81.8187 84.7669ZM66.8584 82.3944C61.4881 79.9089 59.6979 77.5363 61.6159 75.5027C62.511 74.4859 62.8946 73.4691 62.3831 73.0172C61.9995 72.5653 59.1865 74.3729 56.1177 76.8585C49.3408 82.6203 46.3999 83.9761 40.2624 83.9761C30.5446 83.9761 21.9776 76.2936 21.9776 67.4813C21.9776 61.4934 25.1742 57.6522 43.5869 41.6093L57.78 29.1817L75.2976 44.6597L92.6873 60.0247L93.1987 66.1255C93.5823 70.7576 93.0709 72.9042 91.1529 75.8417C85.9104 83.1852 75.0418 86.1226 66.8584 82.3944Z" fill="black"/>
<path d="M68.0092 69.8538C68.9043 68.837 69.2879 67.8202 68.9043 67.3683C67.8813 66.5775 64.1732 69.063 64.1732 70.5317C64.1732 72.1134 66.2191 71.7745 68.0092 69.8538Z" fill="black"/>
<path d="M33.2297 60.1377C32.974 59.3469 31.9511 58.4431 31.056 58.2171C30.0331 57.8782 29.5216 58.3301 29.9052 59.2339C30.161 60.0248 31.1839 60.9286 32.079 61.1545C33.1019 61.4935 33.6133 61.0416 33.2297 60.1377Z" fill="black"/>
<path d="M38.6001 56.9743C38.6001 55.5056 35.2756 53.359 34.3806 54.2629C33.3576 55.0537 35.7871 57.9911 37.4493 57.9911C38.0887 57.9911 38.6001 57.5392 38.6001 56.9743Z" fill="black"/>
<path d="M42.1803 52.2293C41.9246 51.4384 40.9017 50.5346 40.0066 50.3086C38.9837 49.9697 38.4722 50.4216 38.8558 51.3254C39.1116 52.1163 40.1345 53.0201 41.0296 53.2461C42.0525 53.585 42.5639 53.1331 42.1803 52.2293Z" fill="black"/>
<path d="M46.7835 49.1788C47.1671 48.501 46.6557 47.4842 45.7606 46.8063C44.7377 46.0155 43.5869 45.9025 43.2033 46.4674C42.8197 47.1452 43.3312 48.162 44.2262 48.8399C45.2492 49.6308 46.3999 49.7437 46.7835 49.1788Z" fill="black"/>
<path d="M51.131 44.3208C50.8752 43.53 49.8523 42.6261 48.9573 42.4002C47.9343 42.0613 47.4229 42.5132 47.8065 43.417C48.0622 44.2078 49.0851 45.1117 49.9802 45.3376C51.0031 45.6766 51.5146 45.2246 51.131 44.3208Z" fill="black"/>
<path d="M55.7341 41.2704C56.1177 40.5925 55.6063 39.5757 54.7112 38.8979C53.6883 38.107 52.5375 37.994 52.1539 38.5589C51.7703 39.2368 52.2818 40.2536 53.1768 40.9315C54.1998 41.7223 55.3505 41.8353 55.7341 41.2704Z" fill="black"/>
<path d="M60.0816 36.4123C59.8258 35.6215 58.8029 34.7177 57.9078 34.4917C56.8849 34.1528 56.3735 34.6047 56.7571 35.5085C57.0128 36.2994 58.0357 37.2032 58.9308 37.4291C59.9537 37.7681 60.4652 37.3162 60.0816 36.4123Z" fill="black"/>
<ellipse rx="11.7711" ry="15.8533" transform="matrix(0.819991 -0.572376 0.572674 0.819783 18.731 37.8304)" fill="#FF3E00"/>
<path d="M6.91798 27.6667C4.19115 32.5766 5.39738 39.9289 9.78964 45.5288C13.3221 49.9604 18.228 52.6079 22.8082 52.4763C24.8815 52.4439 25.5793 52.1927 27.722 50.697C29.8647 49.2013 30.341 48.6331 31.0855 46.6985C32.1663 44.0577 32.2194 40.0709 31.2729 36.8407C30.746 35.0863 30.0346 33.7554 28.2645 31.1591C26.2437 28.2662 25.5726 27.5556 23.5394 26.1452C20.7454 24.1458 16.95 22.9632 14.2116 23.1061C11.4716 23.3091 8.24953 25.3224 6.91798 27.6667ZM15.0782 24.034C17.6111 24.0345 20.7757 25.1268 23.3743 26.9089C26.1146 28.769 29.4365 33.5244 30.4904 37.0332C31.4109 40.1636 31.2781 43.9113 30.2007 46.4319C29.0025 49.1547 25.4803 51.6133 22.6882 51.6169C20.0395 51.6382 16.9026 50.5856 14.3024 48.8635C12.4662 47.6102 11.7952 46.8996 9.80201 44.0464C7.8919 41.3121 7.34491 40.2791 6.87834 38.4235C5.8428 34.2534 6.33455 30.0193 8.19111 27.4265C9.36088 25.7257 12.8027 24.0895 15.0782 24.034Z" fill="black"/>
<path d="M10.9572 27.3232C11.0956 27.5213 11.3808 27.617 11.5275 27.5146C11.7036 27.3916 11.6826 27.1115 11.5442 26.9134C11.3781 26.6756 11.15 26.5991 10.9739 26.722C10.8271 26.8244 10.7911 27.0854 10.9572 27.3232Z" fill="black"/>
<path d="M7.59489 34.3863C7.7333 34.5844 8.01848 34.6801 8.16524 34.5777C8.34135 34.4547 8.32035 34.1746 8.18193 33.9765C8.01584 33.7387 7.7877 33.6622 7.61158 33.7851C7.46482 33.8876 7.42879 34.1485 7.59489 34.3863Z" fill="black"/>
<path d="M18.7487 26.6006C18.8871 26.7987 19.1723 26.8944 19.3191 26.792C19.4952 26.669 19.4742 26.3889 19.3358 26.1908C19.1697 25.953 18.9415 25.8765 18.7654 25.9994C18.6187 26.1019 18.5826 26.3628 18.7487 26.6006Z" fill="black"/>
<path d="M10.5065 43.5547C10.6449 43.7528 10.9301 43.8485 11.0768 43.7461C11.2529 43.6232 11.2319 43.3431 11.0935 43.1449C10.9274 42.9072 10.6993 42.8306 10.5232 42.9535C10.3764 43.056 10.3404 43.3169 10.5065 43.5547Z" fill="black"/>
<path d="M26.3566 32.4908C26.4951 32.689 26.7802 32.7847 26.927 32.6822C27.1031 32.5593 27.0821 32.2792 26.9437 32.0811C26.7776 31.8433 26.5494 31.7667 26.3733 31.8897C26.2266 31.9921 26.1905 32.2531 26.3566 32.4908Z" fill="black"/>
<path d="M18.1144 49.4449C18.2528 49.6431 18.538 49.7388 18.6847 49.6363C18.8609 49.5134 18.8398 49.2333 18.7014 49.0352C18.5353 48.7974 18.3072 48.7208 18.1311 48.8438C17.9843 48.9462 17.9483 49.2072 18.1144 49.4449Z" fill="black"/>
<path d="M29.2682 41.6593C29.4066 41.8574 29.6918 41.9531 29.8386 41.8507C30.0147 41.7277 29.9937 41.4476 29.8552 41.2495C29.6891 41.0117 29.461 40.9352 29.2849 41.0581C29.1381 41.1605 29.1021 41.4215 29.2682 41.6593Z" fill="black"/>
<path d="M25.906 48.7224C26.0444 48.9205 26.3295 49.0162 26.4763 48.9138C26.6524 48.7908 26.6314 48.5107 26.493 48.3126C26.3269 48.0748 26.0988 47.9983 25.9226 48.1212C25.7759 48.2236 25.7399 48.4846 25.906 48.7224Z" fill="black"/>
<ellipse rx="11.8868" ry="14.8127" transform="matrix(-0.905151 -0.425091 0.420154 -0.907453 95.5042 38.9968)" fill="#FF3E00"/>
<path d="M93.1095 53.4547C98.6907 53.531 104.273 49.2168 106.703 43.0227C108.596 38.0736 108.26 32.7764 105.746 29.001C104.631 27.2797 104.053 26.8084 101.664 25.6867C99.2757 24.565 98.5454 24.4216 96.5195 24.6678C93.72 24.9498 90.3219 26.6971 88.0878 28.9413C86.8812 30.1709 86.1293 31.3647 84.8631 34.0134C83.4777 37.0055 83.2291 37.8867 83.1034 40.2228C82.879 43.4606 83.8704 47.1696 85.4278 49.398C87.0369 51.6008 90.4292 53.3935 93.1095 53.4547ZM85.7576 48.2555C84.4292 46.1347 83.6924 42.9943 83.8357 40.0178C83.9705 36.8876 86.2477 31.9692 88.6611 29.5099C90.8244 27.3323 94.0623 25.7592 96.7583 25.5284C99.6886 25.3078 103.615 27.1517 105.083 29.4877C106.49 31.6956 107.246 34.795 107.154 37.7459C107.058 39.8464 106.81 40.7276 105.443 43.6786C104.134 46.5067 103.547 47.4289 102.224 48.6535C99.2417 51.3946 95.4044 52.8858 92.2385 52.4968C90.1871 52.2818 86.9983 50.1356 85.7576 48.2555Z" fill="black"/>
<path d="M90.7001 50.2274C90.795 50.0225 90.7263 49.7407 90.5627 49.6639C90.3664 49.5717 90.1406 49.7151 90.0457 49.9201C89.9319 50.166 89.9868 50.3914 90.1832 50.4836C90.3468 50.5604 90.5863 50.4733 90.7001 50.2274Z" fill="black"/>
<path d="M98.4348 49.868C98.5297 49.6631 98.461 49.3813 98.2974 49.3045C98.1011 49.2123 97.8753 49.3558 97.7804 49.5607C97.6666 49.8066 97.7216 50.032 97.9179 50.1242C98.0815 50.2011 98.321 50.1139 98.4348 49.868Z" fill="black"/>
<path d="M86.0017 44.029C86.0965 43.824 86.0278 43.5423 85.8642 43.4655C85.6679 43.3733 85.4422 43.5167 85.3473 43.7217C85.2334 43.9676 85.2884 44.193 85.4847 44.2852C85.6483 44.362 85.8878 44.2749 86.0017 44.029Z" fill="black"/>
<path d="M104.658 43.3098C104.753 43.1049 104.684 42.8231 104.521 42.7463C104.324 42.6541 104.098 42.7975 104.004 43.0025C103.89 43.2484 103.945 43.4738 104.141 43.566C104.305 43.6428 104.544 43.5557 104.658 43.3098Z" fill="black"/>
<path d="M86.9898 35.0122C87.0846 34.8073 87.0159 34.5255 86.8523 34.4487C86.656 34.3565 86.4303 34.5 86.3354 34.7049C86.2215 34.9508 86.2765 35.1762 86.4728 35.2684C86.6364 35.3453 86.8759 35.2581 86.9898 35.0122Z" fill="black"/>
<path d="M105.646 34.2931C105.741 34.0882 105.672 33.8064 105.509 33.7296C105.312 33.6374 105.087 33.7809 104.992 33.9858C104.878 34.2317 104.933 34.4571 105.129 34.5493C105.293 34.6261 105.532 34.539 105.646 34.2931Z" fill="black"/>
<path d="M93.2129 28.4541C93.3078 28.2491 93.2391 27.9674 93.0755 27.8905C92.8792 27.7983 92.6534 27.9418 92.5585 28.1467C92.4447 28.3927 92.4996 28.6181 92.6959 28.7103C92.8595 28.7871 93.099 28.7 93.2129 28.4541Z" fill="black"/>
<path d="M100.948 28.0946C101.043 27.8897 100.974 27.6079 100.81 27.5311C100.614 27.4389 100.388 27.5824 100.293 27.7873C100.179 28.0332 100.234 28.2586 100.431 28.3508C100.594 28.4277 100.834 28.3405 100.948 28.0946Z" fill="black"/>
<ellipse rx="11.9533" ry="15.7694" transform="matrix(-0.986094 -0.166193 0.16391 -0.986476 75.6711 17.9872)" fill="#FF3E00"/>
<path d="M77.0787 33.4519C82.5347 31.8846 86.8562 25.835 87.6205 18.7959C88.1841 13.1858 86.4868 7.87723 83.0613 4.76429C81.5299 3.33592 80.8446 3.02536 78.2279 2.58436C75.6113 2.14336 74.8629 2.21227 72.9532 3.0607C70.2994 4.17382 67.4415 6.95919 65.846 9.90856C64.9888 11.5195 64.5652 12.9597 64.0171 16.0369C63.4417 19.4995 63.4275 20.4723 63.9095 22.8941C64.5284 26.2655 66.4535 29.7595 68.547 31.5751C70.6841 33.3494 74.4521 34.1795 77.0787 33.4519ZM68.5727 30.3117C66.7301 28.5383 65.2001 25.5497 64.5697 22.469C63.8912 19.2339 64.837 13.5419 66.5514 10.32C68.0953 7.45948 70.8422 4.89919 73.4085 3.86886C76.2057 2.77991 80.507 3.50484 82.5409 5.45678C84.4831 7.29572 86.0211 10.2368 86.6952 13.2761C87.1449 15.4487 87.1306 16.4215 86.5632 19.8367C86.0194 23.1096 85.6868 24.2239 84.7142 25.8641C82.5187 29.5413 79.1668 32.1947 75.9825 32.7308C73.9287 33.1161 70.2675 31.8651 68.5727 30.3117Z" fill="black"/>
<path d="M73.897 30.8676C73.9364 30.6305 73.7966 30.3631 73.6174 30.3329C73.4023 30.2967 73.2195 30.5097 73.1801 30.7468C73.1328 31.0314 73.2447 31.2453 73.4597 31.2816C73.639 31.3118 73.8497 31.1522 73.897 30.8676Z" fill="black"/>
<path d="M81.3379 28.2208C81.3773 27.9836 81.2375 27.7163 81.0583 27.686C80.8432 27.6498 80.6604 27.8628 80.621 28.1C80.5737 28.3846 80.6856 28.5985 80.9007 28.6347C81.0799 28.6649 81.2906 28.5054 81.3379 28.2208Z" fill="black"/>
<path d="M67.7171 25.9252C67.7565 25.688 67.6167 25.4207 67.4374 25.3905C67.2224 25.3542 67.0396 25.5672 67.0002 25.8044C66.9529 26.089 67.0647 26.3029 67.2798 26.3391C67.459 26.3693 67.6698 26.2098 67.7171 25.9252Z" fill="black"/>
<path d="M85.7029 19.6917C85.7423 19.4545 85.6025 19.1872 85.4233 19.157C85.2082 19.1207 85.0254 19.3337 84.986 19.5709C84.9387 19.8555 85.0506 20.0694 85.2657 20.1056C85.4449 20.1358 85.6556 19.9763 85.7029 19.6917Z" fill="black"/>
<path d="M66.347 16.4295C66.3864 16.1924 66.2465 15.925 66.0673 15.8948C65.8523 15.8585 65.6695 16.0715 65.6301 16.3087C65.5828 16.5933 65.6946 16.8072 65.9097 16.8435C66.0889 16.8737 66.2997 16.7141 66.347 16.4295Z" fill="black"/>
<path d="M84.3328 10.1961C84.3722 9.95894 84.2324 9.69157 84.0532 9.66136C83.8381 9.62511 83.6553 9.83812 83.6159 10.0753C83.5686 10.3599 83.6805 10.5738 83.8956 10.61C84.0748 10.6402 84.2855 10.4807 84.3328 10.1961Z" fill="black"/>
<path d="M70.712 7.90048C70.7514 7.66331 70.6116 7.39594 70.4324 7.36574C70.2173 7.32949 70.0345 7.54249 69.9951 7.77966C69.9478 8.06426 70.0597 8.27816 70.2747 8.31441C70.454 8.34461 70.6647 8.18508 70.712 7.90048Z" fill="black"/>
<path d="M78.1529 5.2536C78.1923 5.01643 78.0525 4.74906 77.8733 4.71886C77.6582 4.68261 77.4754 4.89561 77.436 5.13278C77.3888 5.41738 77.5006 5.63128 77.7157 5.66752C77.8949 5.69773 78.1056 5.5382 78.1529 5.2536Z" fill="black"/>
<ellipse rx="11.5568" ry="15.6436" transform="matrix(0.975969 -0.217911 0.214977 0.976619 40.6373 17.7962)" fill="#FF3E00"/>
<path d="M33.7329 4.07506C29.4197 7.53072 27.7581 14.6953 29.6428 21.4591C31.1856 26.8329 34.6427 31.0951 38.846 32.6981C40.7385 33.4486 41.4655 33.4817 43.9693 32.9227C46.4732 32.3636 47.1182 32.0241 48.5184 30.5385C50.4884 28.5346 52.0308 24.9157 52.383 21.6113C52.5626 19.8117 52.4162 18.3293 51.784 15.2936C51.0354 11.8929 50.6931 10.9918 49.3777 8.93951C47.5931 6.06337 44.5942 3.55611 42.0571 2.65634C39.4959 1.81082 35.8192 2.43626 33.7329 4.07506ZM42.4952 3.82926C44.7922 4.78264 47.2529 6.9702 48.9417 9.57448C50.7299 12.3032 51.9604 17.8934 51.6011 21.4926C51.2627 24.6961 49.7377 28.0669 47.8158 29.9622C45.7087 31.9967 41.5928 32.9157 39.0592 31.8685C36.6491 30.8915 34.1986 28.7505 32.4858 26.2005C31.2902 24.3658 30.9479 23.4648 30.2096 20.1106C29.5021 16.8963 29.3931 15.7476 29.6654 13.8784C30.2892 9.68256 32.322 6.00294 34.9776 4.33477C36.6759 3.22245 40.4107 3.02394 42.4952 3.82926Z" fill="black"/>
<path d="M37.5249 5.28113C37.5762 5.51405 37.799 5.70869 37.9705 5.6704C38.1763 5.62445 38.2622 5.36089 38.2109 5.12796C38.1494 4.84845 37.9712 4.69274 37.7654 4.73869C37.5939 4.77699 37.4634 5.00162 37.5249 5.28113Z" fill="black"/>
<path d="M31.8284 10.463C31.8797 10.6959 32.1025 10.8906 32.2739 10.8523C32.4797 10.8063 32.5657 10.5428 32.5144 10.3098C32.4529 10.0303 32.2747 9.87463 32.0689 9.92058C31.8974 9.95887 31.7669 10.1835 31.8284 10.463Z" fill="black"/>
<path d="M44.8622 7.55289C44.9135 7.78581 45.1362 7.98045 45.3077 7.94216C45.5135 7.89621 45.5995 7.63265 45.5482 7.39972C45.4867 7.12021 45.3084 6.9645 45.1026 7.01045C44.9311 7.04874 44.8007 7.27338 44.8622 7.55289Z" fill="black"/>
<path d="M31.0328 19.9268C31.0841 20.1598 31.3069 20.3544 31.4784 20.3161C31.6842 20.2702 31.7701 20.0066 31.7188 19.7737C31.6573 19.4942 31.4791 19.3385 31.2733 19.3844C31.1018 19.4227 30.9713 19.6473 31.0328 19.9268Z" fill="black"/>
<path d="M49.5545 15.7914C49.6058 16.0243 49.8285 16.219 50 16.1807C50.2058 16.1347 50.2918 15.8712 50.2405 15.6382C50.179 15.3587 50.0007 15.203 49.7949 15.249C49.6235 15.2873 49.493 15.5119 49.5545 15.7914Z" fill="black"/>
<path d="M35.7251 28.1654C35.7764 28.3983 35.9991 28.5929 36.1706 28.5546C36.3764 28.5087 36.4624 28.2451 36.4111 28.0122C36.3496 27.7327 36.1714 27.577 35.9656 27.6229C35.7941 27.6612 35.6636 27.8859 35.7251 28.1654Z" fill="black"/>
<path d="M48.7589 25.2552C48.8102 25.4881 49.0329 25.6828 49.2044 25.6445C49.4102 25.5985 49.4962 25.335 49.4449 25.1021C49.3834 24.8225 49.2051 24.6668 48.9993 24.7128C48.8278 24.7511 48.6974 24.9757 48.7589 25.2552Z" fill="black"/>
<path d="M43.0623 30.4371C43.1136 30.67 43.3364 30.8646 43.5079 30.8263C43.7137 30.7804 43.7996 30.5168 43.7483 30.2839C43.6868 30.0044 43.5086 29.8487 43.3028 29.8946C43.1313 29.9329 43.0008 30.1576 43.0623 30.4371Z" fill="black"/>
</svg>
