<svg width="25" height="36" viewBox="0 0 33 36"  xmlns="http://www.w3.org/2000/svg">
<path d="M22.8324 2.46543C24.9534 12.2605 21.7095 20.5231 14.0987 24.8542C11.9776 26.0536 10.6052 26.3202 5.73929 26.2535C1.49721 26.1869 0 26.3868 0 27.0531C0 28.7189 6.30074 33.983 9.54469 34.9825C16.5317 37.1814 22.2709 35.6488 27.5112 30.0516C30.256 27.1197 31.3166 25.3873 32.0652 22.6553C34.1238 15.1924 32.8138 9.06213 27.8231 3.5982C26.014 1.5992 24.0801 6.0288e-07 23.4562 6.0288e-07C22.4581 6.0288e-07 22.3957 0.333169 22.8324 2.46543ZM28.6965 6.53006C31.1294 10.4614 32.0652 14.1263 31.6285 18.3908C30.8175 26.9198 24.5791 33.5832 16.6564 34.4494C12.5391 34.9158 9.04562 33.8497 5.24022 31.1177C1.06052 28.1192 0.998137 27.3196 5.17784 27.7861C10.73 28.3858 15.0968 26.6533 19.4013 22.0556C22.2709 18.9905 23.2067 17.3913 24.0177 14.3262C25.0782 10.5281 25.0782 5.33067 23.9553 2.3988C23.1443 0.133269 26.5754 3.13177 28.6965 6.53006Z" />
<path d="M28.0726 11.9274C28.0726 12.727 28.3845 13.3267 28.6964 13.3267C29.0707 13.3267 29.3203 12.9269 29.3203 12.3938C29.3203 11.8607 29.0707 11.1944 28.6964 10.9945C28.3845 10.7946 28.0726 11.1944 28.0726 11.9274Z" />
<path d="M28.6965 16.9915C28.6965 17.9244 28.2598 19.7901 27.7607 21.1228C26.7626 23.5882 26.8873 24.4544 28.0102 23.7215C29.3827 22.7886 30.568 15.3257 29.3203 15.3257C29.0084 15.3257 28.6965 16.0586 28.6965 16.9915Z" />
<path d="M19.9627 28.7856C19.9627 29.985 21.0856 31.0511 21.7095 30.3848C21.8966 30.1182 21.5847 29.4519 21.0233 28.8522C20.0251 27.7861 19.9627 27.7861 19.9627 28.7856Z" />
<path d="M10.6052 31.0511C10.6052 31.5842 10.9171 31.8507 11.2291 31.6508C11.6034 31.4509 11.8529 30.9845 11.8529 30.5847C11.8529 30.2515 11.6034 29.985 11.2291 29.985C10.9171 29.985 10.6052 30.4514 10.6052 31.0511Z" />
<path d="M13.7244 31.3176C13.7244 32.0506 14.0363 32.6503 14.3482 32.6503C14.7225 32.6503 14.9721 32.0506 14.9721 31.3176C14.9721 30.5847 14.7225 29.985 14.3482 29.985C14.0363 29.985 13.7244 30.5847 13.7244 31.3176Z" />
<path d="M16.8436 30.5847C16.8436 30.9845 17.1555 31.4509 17.4674 31.6508C17.8417 31.8507 18.0912 31.5842 18.0912 31.0511C18.0912 30.4514 17.8417 29.985 17.4674 29.985C17.1555 29.985 16.8436 30.2515 16.8436 30.5847Z" />
</svg>
