<svg width="51" height="45" viewBox="0 0 51 45" fill="none" xmlns="http://www.w3.org/2000/svg">
<path d="M50.75 22.5C50.75 34.7598 39.4755 44.75 25.5 44.75C11.5245 44.75 0.25 34.7598 0.25 22.5C0.25 10.2402 11.5245 0.25 25.5 0.25C39.4755 0.25 50.75 10.2402 50.75 22.5Z" fill="#F6F5F0" stroke="#565B56" stroke-width="0.5"/>
<path d="M14.1251 13.5471C14.0139 13.8749 13.9768 18.2291 14.0139 23.2388L14.1251 32.3686H25.0626H36V22.7706V13.1726L25.1367 13.0321C16.5351 12.9385 14.2364 13.0321 14.1251 13.5471ZM35.4439 15.8413V17.8545L30.2532 21.2724L25.0996 24.6434L19.909 21.2724L14.6813 17.8545V15.8413V13.8749H25.0626H35.4439V15.8413ZM20.0202 22.3492L25.0626 25.6734L30.1049 22.3492C32.8856 20.5232 35.2214 19.025 35.2956 19.025C35.3697 19.025 35.4439 21.881 35.4439 25.3457V31.6663H25.0626H14.6813V25.3457C14.6813 21.881 14.7554 19.025 14.8296 19.025C14.9037 19.025 17.2395 20.5232 20.0202 22.3492Z" fill="#565B56"/>
<path d="M15.4228 29.7935C15.4228 30.3085 15.6082 30.7299 15.7936 30.7299C16.016 30.7299 16.1643 30.3085 16.1643 29.7935C16.1643 29.2785 16.016 28.8571 15.7936 28.8571C15.6082 28.8571 15.4228 29.2785 15.4228 29.7935Z" fill="#565B56"/>
<path d="M17.2766 29.7935C17.2766 30.3085 17.462 30.7299 17.6474 30.7299C17.8698 30.7299 18.0181 30.3085 18.0181 29.7935C18.0181 29.2785 17.8698 28.8571 17.6474 28.8571C17.462 28.8571 17.2766 29.2785 17.2766 29.7935Z" fill="#565B56"/>
<path d="M19.1304 29.7935C19.1304 30.3085 19.3158 30.7299 19.5012 30.7299C19.7236 30.7299 19.8719 30.3085 19.8719 29.7935C19.8719 29.2785 19.7236 28.8571 19.5012 28.8571C19.3158 28.8571 19.1304 29.2785 19.1304 29.7935Z" fill="#565B56"/>
<path d="M20.9842 29.7935C20.9842 30.3085 21.1696 30.7299 21.355 30.7299C21.5774 30.7299 21.7257 30.3085 21.7257 29.7935C21.7257 29.2785 21.5774 28.8571 21.355 28.8571C21.1696 28.8571 20.9842 29.2785 20.9842 29.7935Z" fill="#565B56"/>
<path d="M22.838 29.7935C22.838 30.3085 23.0234 30.7299 23.2088 30.7299C23.4312 30.7299 23.5795 30.3085 23.5795 29.7935C23.5795 29.2785 23.4312 28.8571 23.2088 28.8571C23.0234 28.8571 22.838 29.2785 22.838 29.7935Z" fill="#565B56"/>
<path d="M24.6918 29.7935C24.6918 30.3085 24.8772 30.7299 25.0626 30.7299C25.285 30.7299 25.4333 30.3085 25.4333 29.7935C25.4333 29.2785 25.285 28.8571 25.0626 28.8571C24.8772 28.8571 24.6918 29.2785 24.6918 29.7935Z" fill="#565B56"/>
<path d="M26.5456 29.7935C26.5456 30.3085 26.731 30.7299 26.9164 30.7299C27.1388 30.7299 27.2871 30.3085 27.2871 29.7935C27.2871 29.2785 27.1388 28.8571 26.9164 28.8571C26.731 28.8571 26.5456 29.2785 26.5456 29.7935Z" fill="#565B56"/>
<path d="M28.3994 29.7935C28.3994 30.3085 28.5848 30.7299 28.7702 30.7299C28.9926 30.7299 29.1409 30.3085 29.1409 29.7935C29.1409 29.2785 28.9926 28.8571 28.7702 28.8571C28.5848 28.8571 28.3994 29.2785 28.3994 29.7935Z" fill="#565B56"/>
<path d="M30.2532 29.7935C30.2532 30.3085 30.4386 30.7299 30.624 30.7299C30.8464 30.7299 30.9947 30.3085 30.9947 29.7935C30.9947 29.2785 30.8464 28.8571 30.624 28.8571C30.4386 28.8571 30.2532 29.2785 30.2532 29.7935Z" fill="#565B56"/>
<path d="M32.107 29.7935C32.107 30.3085 32.2924 30.7299 32.4778 30.7299C32.7002 30.7299 32.8485 30.3085 32.8485 29.7935C32.8485 29.2785 32.7002 28.8571 32.4778 28.8571C32.2924 28.8571 32.107 29.2785 32.107 29.7935Z" fill="#565B56"/>
<path d="M33.9608 29.7935C33.9608 30.3085 34.1462 30.7299 34.3316 30.7299C34.554 30.7299 34.7023 30.3085 34.7023 29.7935C34.7023 29.2785 34.554 28.8571 34.3316 28.8571C34.1462 28.8571 33.9608 29.2785 33.9608 29.7935Z" fill="#565B56"/>
</svg>
