<svg width="30" height="26" viewBox="0 0 60 56"  xmlns="http://www.w3.org/2000/svg">
<path d="M23.0621 1.89654C19.0621 4.39654 15.8621 9.39654 15.8621 13.4965C15.8621 15.1965 16.5621 18.7965 17.3621 21.4965C18.1621 24.1965 18.8621 26.4965 18.8621 26.5965C18.8621 26.7965 15.2621 28.6965 10.8621 30.8965C0.962125 35.8965 -0.337875 37.9965 0.0621255 48.1965L0.362125 55.3965H29.8621H59.3621L59.6621 48.1965C60.0621 37.9965 58.7621 35.8965 48.8621 30.8965C44.4621 28.6965 40.8621 26.7965 40.8621 26.5965C40.8621 26.4965 41.5621 24.1965 42.3621 21.4965C44.3621 14.8965 44.2621 10.9965 41.8621 7.09654C37.6621 0.296545 29.4621 -2.00346 23.0621 1.89654ZM38.2621 5.79654C41.0621 8.59654 41.3621 9.59654 41.2621 14.6965C41.1621 27.3965 31.5621 35.9965 24.5621 29.4965C20.4621 25.6965 18.4621 20.8965 18.4621 14.6965C18.3621 9.99654 18.7621 8.59654 20.8621 6.39654C24.1621 2.79654 26.5621 1.79654 31.2621 2.29654C33.9621 2.59654 36.1621 3.69654 38.2621 5.79654ZM29.8621 33.8965C31.7621 33.8965 34.0621 32.7965 36.0621 30.9965L39.3621 28.0965L47.0621 31.9965C56.7621 36.8965 57.8621 38.4965 57.8621 47.0965V53.8965H29.8621H1.86213V47.0965C1.86213 38.4965 2.96213 36.8965 12.6621 31.9965L20.3621 28.0965L23.6621 30.9965C25.6621 32.7965 28.0621 33.8965 29.8621 33.8965Z" />
<path d="M3.86213 49.8965C3.86213 50.9965 4.36213 51.8965 4.86213 51.8965C5.46213 51.8965 5.86213 50.9965 5.86213 49.8965C5.86213 48.7965 5.46213 47.8965 4.86213 47.8965C4.36213 47.8965 3.86213 48.7965 3.86213 49.8965Z" />
<path d="M8.86213 49.8965C8.86213 50.9965 9.36213 51.8965 9.86213 51.8965C10.4621 51.8965 10.8621 50.9965 10.8621 49.8965C10.8621 48.7965 10.4621 47.8965 9.86213 47.8965C9.36213 47.8965 8.86213 48.7965 8.86213 49.8965Z" />
<path d="M13.8621 49.8965C13.8621 50.9965 14.3621 51.8965 14.8621 51.8965C15.4621 51.8965 15.8621 50.9965 15.8621 49.8965C15.8621 48.7965 15.4621 47.8965 14.8621 47.8965C14.3621 47.8965 13.8621 48.7965 13.8621 49.8965Z" />
<path d="M18.8621 49.8965C18.8621 50.9965 19.3621 51.8965 19.8621 51.8965C20.4621 51.8965 20.8621 50.9965 20.8621 49.8965C20.8621 48.7965 20.4621 47.8965 19.8621 47.8965C19.3621 47.8965 18.8621 48.7965 18.8621 49.8965Z" />
<path d="M23.8621 49.8965C23.8621 50.9965 24.3621 51.8965 24.8621 51.8965C25.4621 51.8965 25.8621 50.9965 25.8621 49.8965C25.8621 48.7965 25.4621 47.8965 24.8621 47.8965C24.3621 47.8965 23.8621 48.7965 23.8621 49.8965Z" />
<path d="M28.8621 49.8965C28.8621 50.9965 29.3621 51.8965 29.8621 51.8965C30.4621 51.8965 30.8621 50.9965 30.8621 49.8965C30.8621 48.7965 30.4621 47.8965 29.8621 47.8965C29.3621 47.8965 28.8621 48.7965 28.8621 49.8965Z" />
<path d="M33.8621 49.8965C33.8621 50.9965 34.3621 51.8965 34.8621 51.8965C35.4621 51.8965 35.8621 50.9965 35.8621 49.8965C35.8621 48.7965 35.4621 47.8965 34.8621 47.8965C34.3621 47.8965 33.8621 48.7965 33.8621 49.8965Z" />
<path d="M38.8621 49.8965C38.8621 50.9965 39.3621 51.8965 39.8621 51.8965C40.4621 51.8965 40.8621 50.9965 40.8621 49.8965C40.8621 48.7965 40.4621 47.8965 39.8621 47.8965C39.3621 47.8965 38.8621 48.7965 38.8621 49.8965Z" />
<path d="M43.8621 49.8965C43.8621 50.9965 44.3621 51.8965 44.8621 51.8965C45.4621 51.8965 45.8621 50.9965 45.8621 49.8965C45.8621 48.7965 45.4621 47.8965 44.8621 47.8965C44.3621 47.8965 43.8621 48.7965 43.8621 49.8965Z" />
<path d="M48.8621 49.8965C48.8621 50.9965 49.3621 51.8965 49.8621 51.8965C50.4621 51.8965 50.8621 50.9965 50.8621 49.8965C50.8621 48.7965 50.4621 47.8965 49.8621 47.8965C49.3621 47.8965 48.8621 48.7965 48.8621 49.8965Z" />
<path d="M53.8621 49.8965C53.8621 50.9965 54.3621 51.8965 54.8621 51.8965C55.4621 51.8965 55.8621 50.9965 55.8621 49.8965C55.8621 48.7965 55.4621 47.8965 54.8621 47.8965C54.3621 47.8965 53.8621 48.7965 53.8621 49.8965Z" />
</svg>
