<svg width="46" height="34" viewBox="0 0 46 38"  xmlns="http://www.w3.org/2000/svg">
<path d="M10.3814 1.38154C9.50699 2.13708 7.83107 4.71848 6.59235 7.111C4.84357 10.4479 4.33351 12.0849 4.62497 14.0367C4.9893 16.807 2.87619 24.8031 0.981671 27.9511C-1.20431 31.7288 -0.694246 31.9806 12.6402 35.0657C21.0927 37.0175 25.1003 37.7101 25.6104 37.2694C26.2662 36.7027 26.5576 35.3176 26.922 29.6511C27.0677 27.4474 29.3994 25.9364 33.9171 25.1179C38.872 24.2364 42.661 21.5921 44.6284 17.6885C45.94 15.17 45.94 14.8552 44.9198 13.4071C43.8269 12.022 43.3168 11.896 37.3418 11.896C31.5854 11.896 30.711 11.7072 27.9421 10.0702C26.1933 9.0628 23.3515 8.05542 21.5299 7.86654L18.2509 7.42581V4.59256C18.2509 1.57042 17.4494 1.1297 15.1905 2.89261C13.9518 3.83702 13.8789 3.77406 13.8789 1.94819C13.8789 -0.44433 12.5674 -0.633213 10.3814 1.38154ZM13.1503 10.0072C13.5875 10.0072 13.8789 9.69241 13.8789 9.31464C13.8789 8.74799 15.4091 8.68503 19.0524 8.93688C23.0601 9.25168 24.8817 9.69241 27.5049 11.2035C30.5653 12.9664 31.4396 13.1553 36.8317 13.1553C44.6284 13.1553 45.357 13.7849 42.661 18.0662C40.5479 21.4661 37.1961 23.4809 32.4598 24.1735C28.1607 24.7401 25.5375 26.9437 25.5375 29.9659C25.4646 32.6102 24.736 32.6102 13.9518 30.1548C8.1954 28.7696 3.45911 27.6363 3.31338 27.5104C3.24052 27.3845 3.82344 25.2438 4.5521 22.7883C5.86369 18.6329 6.15515 18.2551 7.39388 18.8847C9.14266 19.7032 9.14266 19.1366 7.32101 17.1218C6.51948 16.2404 5.86369 14.6034 5.86369 13.4701C5.86369 11.2035 8.92406 4.71848 10.8186 2.82965C11.9844 1.75931 12.0573 1.88523 12.2759 5.85178C12.4216 8.11838 12.786 10.0072 13.1503 10.0072ZM16.7936 5.59994C16.7936 7.04804 16.5021 7.48877 15.3363 7.48877C13.5875 7.48877 13.4417 6.41843 15.1177 4.8444C16.6479 3.33334 16.7936 3.3963 16.7936 5.59994ZM14.2433 31.4769C24.2259 33.8065 25.3189 34.1843 24.9546 35.3176C24.736 36.0731 24.153 36.4509 23.4244 36.262C22.7686 36.1361 17.5951 34.9398 11.9116 33.6176C3.24052 31.6029 1.49173 31.0362 1.49173 30.0918C1.49173 29.3992 1.85606 28.8955 2.29326 28.8955C2.73045 28.8955 8.04967 30.0918 14.2433 31.4769Z" />
<path d="M21.457 12.7775C20.7283 14.4145 21.7485 15.7996 23.4973 15.5478C25.9018 15.2959 25.9018 12.2738 23.4973 12.022C22.55 11.896 21.6756 12.2109 21.457 12.7775ZM24.0802 13.7849C24.0802 14.0997 23.7887 14.4145 23.3515 14.4145C22.9872 14.4145 22.6229 14.0997 22.6229 13.7849C22.6229 13.4071 22.9872 13.1553 23.3515 13.1553C23.7887 13.1553 24.0802 13.4071 24.0802 13.7849Z" />
<path d="M5.49938 25.3068C5.20791 25.9364 5.13505 26.6289 5.42651 26.8178C6.15517 27.4474 6.7381 26.566 6.37377 25.3068C6.08231 24.2364 6.08231 24.2364 5.49938 25.3068Z" />
<path d="M8.77835 26.6919C8.77835 27.1956 9.14268 27.6363 9.50701 27.6363C9.94421 27.6363 10.2357 27.1956 10.2357 26.6919C10.2357 26.1882 9.94421 25.7475 9.50701 25.7475C9.14268 25.7475 8.77835 26.1882 8.77835 26.6919Z" />
<path d="M12.2031 27.3215C11.9116 27.8252 12.0573 28.3919 12.4217 28.5807C12.8588 28.8326 13.1503 28.8326 13.1503 28.6437C13.1503 28.5178 13.3689 27.9511 13.5875 27.3845C13.8061 26.8178 13.7332 26.3771 13.296 26.3771C12.9317 26.3771 12.4217 26.8178 12.2031 27.3215Z" />
<path d="M15.7734 28.0141C15.1905 29.3363 15.1905 29.5252 15.992 29.5252C16.8664 29.5252 17.5951 27.7623 16.8664 27.3215C16.5021 27.1326 15.992 27.4474 15.7734 28.0141Z" />
<path d="M19.3439 28.4548C19.0524 29.0844 18.9796 29.777 19.271 29.9659C19.9997 30.5955 20.5826 29.714 20.2183 28.4548C19.9268 27.3845 19.9268 27.3845 19.3439 28.4548Z" />
<path d="M22.6229 29.84C22.6229 30.3437 22.9872 30.7844 23.3515 30.7844C23.7887 30.7844 24.0802 30.3437 24.0802 29.84C24.0802 29.3363 23.7887 28.8955 23.3515 28.8955C22.9872 28.8955 22.6229 29.3363 22.6229 29.84Z" />
</svg>
