<svg width="30" height="34" viewBox="0 0 40 54"  xmlns="http://www.w3.org/2000/svg">
<path d="M1.86248 2.00543C0.0624752 3.80543 -0.137525 5.10543 0.0624753 11.8054L0.362475 19.5054H6.86248C13.1625 19.5054 13.3625 19.4054 13.6625 16.7054C13.9625 14.2054 14.2625 14.0054 18.9625 14.0054H23.8625V18.0054C23.8625 22.0054 23.8625 22.0054 19.8625 22.0054C13.5625 22.0054 11.6625 24.5054 12.0625 32.8054L12.3625 39.5054H18.8625C25.1625 39.5054 25.3625 39.4054 25.6625 36.7054C25.9625 34.2054 26.2625 34.0054 30.9625 34.0054C39.1625 34.0054 39.8625 32.6054 39.8625 17.0054C39.8625 -0.794568 40.7625 0.00543154 19.8625 0.00543154C5.06248 0.00543154 3.66248 0.205432 1.86248 2.00543ZM36.6625 3.20543C38.3625 4.90543 38.3625 29.4054 36.5625 30.8054C35.8625 31.4054 32.8625 32.0054 29.8625 32.2054C24.6625 32.5054 24.3625 32.7054 24.0625 35.2054C23.7625 37.8054 23.4625 38.0054 18.7625 38.0054H13.8625V32.1054C13.8625 25.3054 14.6625 24.3054 20.8625 23.8054L25.3625 23.5054V18.0054V12.5054H18.8625C12.5625 12.5054 12.3625 12.6054 12.0625 15.2054C11.7625 17.8054 11.4625 18.0054 6.76248 18.0054H1.86248V11.2054C1.86248 7.20543 2.36248 3.90543 3.06248 3.20543C4.76248 1.50543 34.9625 1.50543 36.6625 3.20543Z" />
<path d="M31.8625 7.00543C31.8625 7.50543 32.7625 8.00543 33.8625 8.00543C34.9625 8.00543 35.8625 7.50543 35.8625 7.00543C35.8625 6.40543 34.9625 6.00543 33.8625 6.00543C32.7625 6.00543 31.8625 6.40543 31.8625 7.00543Z" />
<path d="M31.8625 12.0054C31.8625 12.5054 32.7625 13.0054 33.8625 13.0054C34.9625 13.0054 35.8625 12.5054 35.8625 12.0054C35.8625 11.4054 34.9625 11.0054 33.8625 11.0054C32.7625 11.0054 31.8625 11.4054 31.8625 12.0054Z" />
<path d="M31.8625 17.0054C31.8625 17.5054 32.7625 18.0054 33.8625 18.0054C34.9625 18.0054 35.8625 17.5054 35.8625 17.0054C35.8625 16.4054 34.9625 16.0054 33.8625 16.0054C32.7625 16.0054 31.8625 16.4054 31.8625 17.0054Z" />
<path d="M31.8625 22.0054C31.8625 22.5054 32.7625 23.0054 33.8625 23.0054C34.9625 23.0054 35.8625 22.5054 35.8625 22.0054C35.8625 21.4054 34.9625 21.0054 33.8625 21.0054C32.7625 21.0054 31.8625 21.4054 31.8625 22.0054Z" />
<path d="M31.8625 27.0054C31.8625 27.5054 32.7625 28.0054 33.8625 28.0054C34.9625 28.0054 35.8625 27.5054 35.8625 27.0054C35.8625 26.4054 34.9625 26.0054 33.8625 26.0054C32.7625 26.0054 31.8625 26.4054 31.8625 27.0054Z" />
<path d="M12.2625 43.3054C11.9625 44.1054 11.8625 46.7054 12.0625 49.1054L12.3625 53.5054H18.8625H25.3625V48.0054V42.5054L19.0625 42.2054C14.3625 42.0054 12.6625 42.3054 12.2625 43.3054ZM23.8625 48.0054V52.0054H18.8625H13.8625V48.0054V44.0054H18.8625H23.8625V48.0054Z" />
</svg>
