<svg width="30" height="35" viewBox="0 0 35 49"  xmlns="http://www.w3.org/2000/svg">
<path d="M19.375 2.75C19.375 4.2625 19.6875 5.5 20 5.5C20.375 5.5 20.625 4.2625 20.625 2.75C20.625 1.2375 20.375 -8.19564e-08 20 -8.19564e-08C19.6875 -8.19564e-08 19.375 1.2375 19.375 2.75Z" />
<path d="M12.5 3.02499C12.5 4.26249 13.875 6.87499 14.375 6.53124C15.0625 6.04999 13.875 2.74999 13 2.74999C12.75 2.74999 12.5 2.88749 12.5 3.02499Z" />
<path d="M25.75 4.46874C25.3125 5.49999 25.25 6.25624 25.625 6.53124C26.125 6.87499 27.5 4.26249 27.5 3.02499C27.5 2.06249 26.375 3.02499 25.75 4.46874Z" />
<path d="M5.625 6.73749C5.625 7.69999 8.6875 10.5875 9.1875 10.1062C9.375 9.83124 8.9375 8.86874 8.125 7.90624C6.625 6.18749 5.625 5.70624 5.625 6.73749Z" />
<path d="M31.875 7.90624C31.0625 8.86874 30.625 9.83124 30.8125 10.1062C31.3125 10.5875 34.375 7.69999 34.375 6.73749C34.375 5.70624 33.375 6.18749 31.875 7.90624Z" />
<path d="M13.6875 8.8C4.375 14.1625 3.8125 28.6 12.6875 34.65C25.0625 43.0375 39.125 27.5688 31.5 13.9563C30.1875 11.6188 28.75 10.175 26.3125 8.8C21.875 6.25625 18.125 6.25625 13.6875 8.8ZM26.875 10.5875C30.5625 13.2688 32.1875 16.7063 32.1875 22C32.1875 27.3625 30.5625 30.7313 26.6875 33.55C23.1875 36.0938 17.125 36.2313 13.5625 33.7563C8.8125 30.525 6.625 24.1313 8.0625 18.0125C8.9375 14.5063 12.75 9.96875 15.75 9.00625C19.0625 7.90625 24.1875 8.59375 26.875 10.5875Z" />
<path d="M15.875 11.9625C13.9375 12.925 12.75 14.2312 13.3125 14.85C13.4375 15.0562 14.625 14.5062 15.875 13.6812C17.625 12.5812 18.8125 12.3062 20.9375 12.5812C23.6875 12.8562 24.6875 12.2375 22.75 11.4125C21.125 10.725 17.9375 11 15.875 11.9625Z" />
<path d="M25.625 13.8875C25.625 15.125 26.75 16.225 27.375 15.5375C27.5625 15.2625 27.25 14.575 26.6875 13.9563C25.6875 12.8563 25.625 12.8563 25.625 13.8875Z" />
<path d="M11.375 25.2313C11 25.3688 10.75 25.85 10.9375 26.125C11.375 26.8813 13.125 26.2625 13.125 25.3688C13.125 24.6813 12.625 24.6813 11.375 25.2313Z" />
<path d="M13.1875 28.4625C12.75 29.0125 12.6875 29.6312 13 29.8375C13.375 30.0437 13.9375 29.7687 14.3125 29.2875C14.75 28.7375 14.8125 28.1187 14.5 27.9125C14.125 27.7062 13.5625 27.9812 13.1875 28.4625Z" />
<path d="M16.0625 30.525C15.6875 31.625 16.1875 32.45 16.9375 31.9C17.6875 31.4187 17.625 29.5625 16.9375 29.5625C16.625 29.5625 16.25 29.975 16.0625 30.525Z" />
<path d="M22.5 30.525C22.5 31.6937 23.375 32.5187 23.9375 31.9C24.4375 31.35 23.75 29.5625 23.0625 29.5625C22.75 29.5625 22.5 29.975 22.5 30.525Z" />
<path d="M19.375 31.625C19.375 32.3812 19.6875 33 20 33C20.375 33 20.625 32.3812 20.625 31.625C20.625 30.8687 20.375 30.25 20 30.25C19.6875 30.25 19.375 30.8687 19.375 31.625Z" />
<path d="M2.5 14.3C2.5 15.2625 5.5 16.5688 5.9375 15.8125C6.1875 15.4 5.5625 14.7813 4.6875 14.4375C2.6875 13.6125 2.5 13.6125 2.5 14.3Z" />
<path d="M35.125 14.5063C34.3125 14.85 33.8125 15.4 34.0625 15.8125C34.5 16.5688 37.5 15.2625 37.5 14.3C37.5 13.6125 37 13.6813 35.125 14.5063Z" />
<path d="M0 22C0 22.3437 1.125 22.6875 2.5 22.6875C3.875 22.6875 5 22.3437 5 22C5 21.5875 3.875 21.3125 2.5 21.3125C1.125 21.3125 0 21.5875 0 22Z" />
<path d="M35 22C35 22.3437 36.125 22.6875 37.5 22.6875C38.875 22.6875 40 22.3437 40 22C40 21.5875 38.875 21.3125 37.5 21.3125C36.125 21.3125 35 21.5875 35 22Z" />
<path d="M3.9375 28.3937C3.125 28.7375 2.5 29.3562 2.5 29.7C2.5 30.3875 4.9375 29.7687 5.8125 28.875C6.75 27.9812 5.375 27.6375 3.9375 28.3937Z" />
<path d="M34.0625 28.1875C33.8125 28.6 34.4375 29.2188 35.3125 29.5625C37.3125 30.3875 37.5 30.3875 37.5 29.7C37.5 28.7375 34.5 27.4313 34.0625 28.1875Z" />
<path d="M6.87501 35.4063C6.06251 36.3688 5.62501 37.3313 5.81251 37.6063C6.31251 38.0875 9.37501 35.2 9.37501 34.2375C9.37501 33.2063 8.37501 33.6875 6.87501 35.4063Z" />
<path d="M30.625 34.2375C30.625 35.2 33.6875 38.0875 34.1875 37.6063C34.375 37.3313 33.9375 36.3688 33.125 35.4063C31.625 33.6875 30.625 33.2063 30.625 34.2375Z" />
<path d="M13.125 38.8438C12.375 41.0438 12.375 41.25 13 41.25C13.875 41.25 15.0625 37.95 14.375 37.4688C14 37.1938 13.4375 37.8813 13.125 38.8438Z" />
<path d="M25.5 37.5375C24.9375 38.0875 26.3125 41.25 27 41.25C27.3125 41.25 27.375 40.5625 27.1875 39.6687C26.625 37.8125 26 36.9875 25.5 37.5375Z" />
<path d="M19.375 41.25C19.375 42.7625 19.6875 44 20 44C20.375 44 20.625 42.7625 20.625 41.25C20.625 39.7375 20.375 38.5 20 38.5C19.6875 38.5 19.375 39.7375 19.375 41.25Z" />
</svg>
