<svg width="30" height="26" viewBox="0 0 60 51"  xmlns="http://www.w3.org/2000/svg">
<path d="M7.96265 24.7672C4.46265 25.2672 1.16265 26.0672 0.662646 26.5672C0.162646 27.0672 -0.137354 30.9672 0.0626462 35.3672L0.362646 43.2672L7.46265 42.9672C14.0626 42.6672 14.9626 42.8672 21.9626 46.6672C26.0626 48.8672 30.4626 50.7672 31.7626 50.7672C34.1626 50.7672 56.1626 39.7672 58.7626 37.2672C60.7626 35.3672 59.3626 30.9672 56.5626 30.2672C55.3626 29.9672 51.3626 30.5672 47.7626 31.5672C41.3626 33.3672 41.0626 33.3672 38.8626 31.5672C37.6626 30.5672 35.3626 29.7672 33.8626 29.7672C32.3626 29.7672 28.6626 28.6672 25.6626 27.2672C18.8626 24.1672 15.9626 23.7672 7.96265 24.7672ZM23.6626 28.7672C27.1626 30.4672 31.4626 31.7672 33.2626 31.7672C36.2626 31.7672 38.8626 33.2672 38.8626 34.9672C38.8626 35.3672 37.4626 36.4672 35.6626 37.3672C32.5626 38.9672 30.0626 38.6672 23.2626 36.0672C22.4626 35.7672 21.8626 35.9672 21.8626 36.5672C21.8626 37.1672 24.1626 38.3672 26.8626 39.2672C32.4626 41.0672 36.4626 40.3672 40.3626 36.8672C43.1626 34.3672 55.5626 31.0672 57.0626 32.5672C57.6626 33.1672 57.8626 34.2672 57.5626 35.0672C56.9626 36.5672 37.1626 47.3672 33.2626 48.3672C31.9626 48.7672 28.0626 47.3672 23.0626 44.8672C18.1626 42.3672 13.4626 40.7672 11.3626 40.7672C9.46265 40.7672 7.86265 40.2672 7.86265 39.7672C7.86265 39.1672 6.96265 38.7672 5.86265 38.7672C3.36265 38.7672 3.26265 40.4672 5.66265 41.0672C6.66265 41.3672 6.26265 41.5672 4.66265 41.6672C1.86265 41.7672 1.86265 41.7672 1.86265 34.7672V27.8672L5.16265 27.3672C8.26265 26.8672 12.6626 26.2672 15.8626 25.9672C16.6626 25.8672 20.2626 27.1672 23.6626 28.7672Z" />
<path d="M3.86265 29.7672C3.86265 30.2672 4.76265 30.7672 5.86265 30.7672C6.96265 30.7672 7.86265 30.2672 7.86265 29.7672C7.86265 29.1672 6.96265 28.7672 5.86265 28.7672C4.76265 28.7672 3.86265 29.1672 3.86265 29.7672Z" />
<path d="M3.86265 34.7672C3.86265 35.2672 4.76265 35.7672 5.86265 35.7672C6.96265 35.7672 7.86265 35.2672 7.86265 34.7672C7.86265 34.1672 6.96265 33.7672 5.86265 33.7672C4.76265 33.7672 3.86265 34.1672 3.86265 34.7672Z" />
<path d="M30.6786 0.869753C29.4733 1.60216 29.2322 2.19725 29.2322 4.11983C29.2322 6.04241 29.4733 6.63749 30.6786 7.3699C32.4867 8.46852 34.0536 8.46852 35.5603 7.32413C37.8505 5.58465 37.8505 2.65501 35.5603 0.915528C34.0536 -0.228865 32.4867 -0.228865 30.6786 0.869753ZM35.1987 1.92259C37.0068 3.89095 35.7411 7.32413 33.1496 7.32413C31.7032 7.32413 30.1362 5.63043 30.1362 4.11983C30.1362 2.60923 31.7032 0.915528 33.1496 0.915528C33.7523 0.915528 34.7166 1.37329 35.1987 1.92259Z" />
<path d="M41.5269 0.869752C40.3215 1.60216 40.0805 2.19725 40.0805 4.11983C40.0805 6.04241 40.3215 6.63749 41.5269 7.3699C43.3349 8.46852 44.9019 8.46852 46.4086 7.32413C47.855 6.22551 48.4577 4.48603 47.9756 2.97543C47.4934 1.46484 45.5046 1.35224e-05 44.0582 1.35224e-05C43.4555 1.35224e-05 42.3104 0.411995 41.5269 0.869752ZM46.047 1.92259C47.855 3.89095 46.5894 7.32413 43.9979 7.32413C42.5514 7.32413 40.9845 5.63043 40.9845 4.11983C40.9845 2.60923 42.5514 0.915528 43.9979 0.915528C44.6006 0.915528 45.5649 1.37329 46.047 1.92259Z" />
<path d="M23.4464 7.27832C22.2411 8.01073 22 8.60582 22 10.5284C22 12.451 22.2411 13.0461 23.4464 13.7785C25.2545 14.8771 26.8215 14.8771 28.3282 13.7327C30.6183 11.9932 30.6183 9.06357 28.3282 7.3241C26.8215 6.1797 25.2545 6.1797 23.4464 7.27832ZM27.9665 8.33116C29.7746 10.2995 28.509 13.7327 25.9174 13.7327C24.471 13.7327 22.904 12.039 22.904 10.5284C22.904 9.0178 24.471 7.3241 25.9174 7.3241C26.5201 7.3241 27.4844 7.78185 27.9665 8.33116Z" />
<path d="M48.7591 7.27836C47.5537 8.01078 47.3126 8.60586 47.3126 10.5284C47.3126 12.451 47.5537 13.0461 48.7591 13.7785C49.5426 14.2363 50.6877 14.6483 51.2903 14.6483C52.7368 14.6483 54.7256 13.1834 55.2078 11.6728C55.6899 10.1622 55.0872 8.42276 53.6408 7.32414C52.1341 6.17975 50.5671 6.17975 48.7591 7.27836ZM53.2792 8.33121C55.0872 10.2996 53.8216 13.7327 51.2301 13.7327C49.7836 13.7327 48.2167 12.039 48.2167 10.5284C48.2167 9.01784 49.7836 7.32414 51.2301 7.32414C51.8327 7.32414 52.797 7.7819 53.2792 8.33121Z" />
<path d="M36.2233 9.06359C35.5001 9.47557 34.1742 10.8488 33.2702 12.1306C32.0648 13.7785 30.8594 14.7398 28.509 15.7468C24.3505 17.5321 23.2054 19.5005 24.8326 22.2012C26.1585 24.3985 28.3884 24.8562 34.1139 24.2154C38.1519 23.7576 40.201 23.7576 44.239 24.2154C49.9644 24.8562 52.1944 24.3985 53.5203 22.2012C55.1475 19.5005 54.0024 17.5321 49.8439 15.7468C47.4934 14.7398 46.2881 13.7785 45.0827 12.1306C44.1787 10.8488 42.8528 9.47557 42.1296 9.06359C40.5023 8.01075 37.8505 8.01075 36.2233 9.06359ZM41.2255 9.75023C41.8282 10.0707 43.0336 11.3524 43.8773 12.5883C44.7814 13.8243 46.4689 15.2891 47.614 15.8842C53.0984 18.5392 53.7613 19.3174 52.3752 21.6519C51.2301 23.6203 49.8439 23.9407 44.8416 23.2998C40.6831 22.7963 36.1028 22.8879 30.6184 23.6203C28.75 23.8491 28.1474 23.7118 26.8817 22.7505C25.9174 22.0181 25.3148 21.0568 25.3148 20.1871C25.3148 18.8138 26.279 17.9899 30.7389 15.8842C31.884 15.2891 33.5715 13.8243 34.4755 12.5883C36.163 10.208 37.6095 9.15514 39.1764 9.15514C39.7188 9.15514 40.6229 9.4298 41.2255 9.75023Z" />
<path d="M38.2724 10.4827C38.0916 10.7573 38.3327 10.9862 38.8148 10.9862C39.297 10.9862 39.9599 11.3524 40.3215 11.7644C40.6229 12.2221 41.105 12.4052 41.3461 12.2221C42.009 11.7644 40.8037 10.3453 39.5983 10.1622C39.1162 10.0707 38.5135 10.2538 38.2724 10.4827Z" />
<path d="M41.5872 13.5496C41.5872 13.6869 41.8885 14.1905 42.1898 14.694C43.1541 15.9757 44.1184 15.7468 43.2747 14.4193C42.672 13.4123 41.5872 12.8172 41.5872 13.5496Z" />
<path d="M26.5201 20.1413C26.5201 20.6448 26.8215 21.0568 27.1228 21.0568C27.4844 21.0568 27.7255 20.6448 27.7255 20.1413C27.7255 19.6378 27.4844 19.2258 27.1228 19.2258C26.8215 19.2258 26.5201 19.6378 26.5201 20.1413Z" />
<path d="M29.5335 20.1413C29.5335 20.6448 29.8349 21.0568 30.1362 21.0568C30.4978 21.0568 30.7389 20.6448 30.7389 20.1413C30.7389 19.6378 30.4978 19.2258 30.1362 19.2258C29.8349 19.2258 29.5335 19.6378 29.5335 20.1413Z" />
<path d="M32.5469 20.1413C32.5469 20.6448 32.8483 21.0568 33.1496 21.0568C33.5112 21.0568 33.7523 20.6448 33.7523 20.1413C33.7523 19.6378 33.5112 19.2258 33.1496 19.2258C32.8483 19.2258 32.5469 19.6378 32.5469 20.1413Z" />
<path d="M35.5603 20.1413C35.5603 20.6448 35.8617 21.0568 36.163 21.0568C36.5246 21.0568 36.7657 20.6448 36.7657 20.1413C36.7657 19.6378 36.5246 19.2258 36.163 19.2258C35.8617 19.2258 35.5603 19.6378 35.5603 20.1413Z" />
<path d="M38.5737 20.1413C38.5737 20.6448 38.8751 21.0568 39.1764 21.0568C39.538 21.0568 39.7791 20.6448 39.7791 20.1413C39.7791 19.6378 39.538 19.2258 39.1764 19.2258C38.8751 19.2258 38.5737 19.6378 38.5737 20.1413Z" />
<path d="M41.5872 20.1413C41.5872 20.6448 41.8885 21.0568 42.1898 21.0568C42.5514 21.0568 42.7925 20.6448 42.7925 20.1413C42.7925 19.6378 42.5514 19.2258 42.1898 19.2258C41.8885 19.2258 41.5872 19.6378 41.5872 20.1413Z" />
<path d="M44.6006 20.1413C44.6006 20.6448 44.9019 21.0568 45.2032 21.0568C45.5649 21.0568 45.8059 20.6448 45.8059 20.1413C45.8059 19.6378 45.5649 19.2258 45.2032 19.2258C44.9019 19.2258 44.6006 19.6378 44.6006 20.1413Z" />
<path d="M47.614 20.1413C47.614 20.6448 47.9153 21.0568 48.2167 21.0568C48.5783 21.0568 48.8193 20.6448 48.8193 20.1413C48.8193 19.6378 48.5783 19.2258 48.2167 19.2258C47.9153 19.2258 47.614 19.6378 47.614 20.1413Z" />
<path d="M50.6274 20.1413C50.6274 20.6448 50.9287 21.0568 51.2301 21.0568C51.5917 21.0568 51.8327 20.6448 51.8327 20.1413C51.8327 19.6378 51.5917 19.2258 51.2301 19.2258C50.9287 19.2258 50.6274 19.6378 50.6274 20.1413Z" />
</svg>
