<svg width="56" height="55" viewBox="0 0 56 55" fill="none" xmlns="http://www.w3.org/2000/svg">
<path d="M18.9183 1.30317C6.84314 5.54363 -0.864377 17.101 0.0776539 29.3235C0.934045 39.0516 6.92878 47.6156 16.0922 51.9392C20.2028 53.9347 21.9156 54.2673 28.1673 54.2673C34.4189 54.2673 36.1317 53.9347 40.2424 51.9392C45.9802 49.2786 51.5468 43.7078 54.1159 38.2201C55.4862 35.2268 55.9144 32.6493 56 27.2448C56 21.1751 55.6574 19.5122 53.6021 15.5212C50.8617 9.95038 45.0382 4.54588 39.4717 2.05149C33.8195 -0.359753 24.7417 -0.692338 18.9183 1.30317ZM39.8998 4.21329C44.8669 6.70768 49.5771 11.3639 52.2319 16.4358C55.058 21.7571 55.058 31.7347 52.3175 37.7212C49.834 43.0426 44.4387 48.1977 38.8722 50.692C32.7918 53.3527 22.5151 53.3527 17.0342 50.6089C11.8102 48.0314 7.10006 43.4583 4.35961 38.4695C2.47555 34.8943 2.13299 33.2313 2.13299 27.2448C2.13299 21.5077 2.47555 19.5122 4.10269 16.4358C7.78518 9.53465 14.5507 4.047 21.7444 2.21778C26.3689 0.970587 35.361 2.05149 39.8998 4.21329Z" fill="black"/>
<path d="M27.3109 4.79531C27.3109 5.21104 27.7391 5.62677 28.1673 5.62677C28.6811 5.62677 29.0237 5.21104 29.0237 4.79531C29.0237 4.29643 28.6811 3.96384 28.1673 3.96384C27.7391 3.96384 27.3109 4.29643 27.3109 4.79531Z" fill="black"/>
<path d="M11.0395 11.447C11.0395 11.8627 11.4677 12.2785 11.8959 12.2785C12.4097 12.2785 12.7522 11.8627 12.7522 11.447C12.7522 10.9481 12.4097 10.6155 11.8959 10.6155C11.4677 10.6155 11.0395 10.9481 11.0395 11.447Z" fill="black"/>
<path d="M43.5823 11.447C43.5823 11.8627 44.0105 12.2785 44.4387 12.2785C44.9526 12.2785 45.2951 11.8627 45.2951 11.447C45.2951 10.9481 44.9526 10.6155 44.4387 10.6155C44.0105 10.6155 43.5823 10.9481 43.5823 11.447Z" fill="black"/>
<path d="M15.3214 21.8403C14.0368 23.3369 14.465 25.5819 16.4347 26.7459C19.3465 28.5751 22.6864 24.501 20.4598 21.8403C19.0895 20.2605 16.6916 20.2605 15.3214 21.8403ZM19.2608 23.1706C20.1172 24.5841 18.1475 26.1639 16.9486 24.9998C15.9209 24.0021 16.606 22.256 17.8906 22.256C18.3188 22.256 18.9183 22.6718 19.2608 23.1706Z" fill="black"/>
<path d="M35.8748 21.8403C34.5902 23.3369 35.0184 25.5819 36.9881 26.7459C39.8998 28.5751 43.2398 24.501 41.0132 21.8403C39.6429 20.2605 37.245 20.2605 35.8748 21.8403ZM39.8142 23.1706C40.6706 24.5841 38.7009 26.1639 37.502 24.9998C36.4743 24.0021 37.1594 22.256 38.444 22.256C38.8722 22.256 39.4717 22.6718 39.8142 23.1706Z" fill="black"/>
<path d="M20.2885 35.5594C18.5757 36.474 16.8629 37.6381 16.606 38.137C15.4071 39.883 16.9486 39.7167 20.0316 37.6381C24.5704 34.728 31.7641 34.728 36.303 37.6381C39.386 39.7167 40.9275 39.883 39.7286 38.137C39.4716 37.6381 37.6732 36.474 35.8748 35.5594C31.5072 33.3976 24.5704 33.3976 20.2885 35.5594Z" fill="black"/>
</svg>
